<svg width="20" height="20" viewBox="0 0 20 20" fill="none" xmlns="http://www.w3.org/2000/svg">
<path d="M3.94042 13.4487C2.65248 12.1608 2.00851 11.5168 1.76889 10.6813C1.52926 9.8458 1.73405 8.95839 2.14361 7.1836L2.37981 6.16011C2.72437 4.66698 2.89666 3.9204 3.40789 3.40917C3.91912 2.89795 4.6657 2.72565 6.15883 2.38109L7.18231 2.1449C8.95711 1.73533 9.84452 1.53055 10.68 1.77017C11.5155 2.00979 12.1595 2.65376 13.4474 3.9417L14.9721 5.4664C17.2129 7.70723 18.3334 8.82764 18.3334 10.2199C18.3334 11.6121 17.2129 12.7326 14.9721 14.9734C12.7313 17.2142 11.6109 18.3346 10.2186 18.3346C8.82636 18.3346 7.70595 17.2142 5.46512 14.9734L3.94042 13.4487Z" stroke="#325D7B" stroke-width="1.5"/>
<path d="M8.35121 8.58086C9.00208 7.92998 9.00208 6.87471 8.35121 6.22383C7.70033 5.57296 6.64506 5.57296 5.99418 6.22383C5.34331 6.87471 5.34331 7.92998 5.99419 8.58086C6.64506 9.23173 7.70033 9.23173 8.35121 8.58086Z" stroke="#325D7B" stroke-width="1.5"/>
<path d="M9.6181 15.4176L15.434 9.60156" stroke="#325D7B" stroke-width="1.5" stroke-linecap="round"/>
</svg>
