<svg width="58" height="58" viewBox="0 0 58 58" fill="none" xmlns="http://www.w3.org/2000/svg">
<rect width="58" height="58" fill="black"/>
<path fill-rule="evenodd" clip-rule="evenodd" d="M20.1167 24.5459C19.7902 24.9514 19.2615 25.2703 18.738 25.227C18.6706 24.6811 18.9298 24.0973 19.2304 23.7351C19.5569 23.3189 20.1322 23.0216 20.5987 23C20.6505 23.573 20.438 24.1297 20.1167 24.5459ZM20.5884 25.3351C20.1271 25.3081 19.702 25.4811 19.3651 25.6216C19.1475 25.7135 18.9609 25.7892 18.8209 25.7892C18.6602 25.7892 18.4685 25.7081 18.2508 25.6162C17.9657 25.4973 17.6392 25.3622 17.2971 25.3676C16.5144 25.3784 15.7888 25.8432 15.3897 26.5784C14.5708 28.0541 15.1772 30.2324 15.9702 31.4324C16.359 32.027 16.8254 32.6757 17.437 32.6541C17.7066 32.6432 17.8983 32.5568 18.1005 32.4703C18.3337 32.3676 18.5721 32.2595 18.9453 32.2595C19.3081 32.2595 19.5362 32.3622 19.7591 32.4649C19.9664 32.5568 20.1685 32.6486 20.4691 32.6432C21.1015 32.6324 21.5006 32.0486 21.8893 31.4541C22.3091 30.8162 22.4905 30.1946 22.5216 30.1027L22.5268 30.0919C22.5268 30.0919 22.5216 30.0865 22.5113 30.0865C22.3713 30.0216 21.2984 29.5081 21.2881 28.1351C21.2777 26.9838 22.1381 26.4 22.2729 26.3081C22.2832 26.3027 22.2884 26.2973 22.2884 26.2973C21.739 25.4486 20.8838 25.3568 20.5884 25.3351ZM24.9836 32.5838V23.6811H28.1816C29.835 23.6811 30.9856 24.8703 30.9856 26.6054C30.9856 28.3405 29.8091 29.5405 28.1349 29.5405H26.3053V32.5838H24.9836ZM26.3053 24.8432H27.8291C28.9798 24.8432 29.6328 25.4811 29.6328 26.6054C29.6328 27.7297 28.9746 28.373 27.8239 28.373H26.3053V24.8432ZM35.355 31.5135C35.0025 32.2108 34.2354 32.6486 33.4009 32.6486C32.1725 32.6486 31.3122 31.8811 31.3122 30.7297C31.3122 29.5892 32.1414 28.9297 33.6808 28.8324L35.3342 28.7297V28.2378C35.3342 27.5135 34.8781 27.1189 34.0695 27.1189C33.4009 27.1189 32.9137 27.4811 32.8152 28.027H31.6231C31.6594 26.8757 32.7012 26.0324 34.1058 26.0324C35.6193 26.0324 36.6041 26.8595 36.6041 28.1459V32.5784H35.3809V31.5081H35.355V31.5135ZM33.7586 31.5946C33.0537 31.5946 32.6027 31.2432 32.6027 30.6973C32.6027 30.1351 33.0329 29.8108 33.8622 29.7622L35.3342 29.6649V30.1676C35.3342 31 34.6552 31.5946 33.7586 31.5946ZM40.6728 32.9297C40.1441 34.4865 39.5377 35 38.2471 35C38.1486 35 37.8221 34.9892 37.7444 34.9676V33.8973C37.8273 33.9081 38.0294 33.9189 38.1331 33.9189C38.7188 33.9189 39.0453 33.6595 39.2474 32.9946L39.3667 32.6L37.1224 26.1189H38.5063L40.0664 31.3784H40.0923L41.6524 26.1189H43L40.6728 32.9297Z" fill="white"/>
</svg>
