<svg width="46" height="20" viewBox="0 0 46 20" fill="none" xmlns="http://www.w3.org/2000/svg">
<path fill-rule="evenodd" clip-rule="evenodd" d="M8.406 2.57658C7.86955 3.25225 7.00101 3.78378 6.14099 3.71171C6.03029 2.8018 6.45604 1.82883 6.94992 1.22523C7.48637 0.531532 8.43154 0.036036 9.1979 0C9.28305 0.954955 8.93393 1.88288 8.406 2.57658ZM9.18086 3.89189C8.42302 3.84685 7.72479 4.13513 7.17131 4.36937C6.81368 4.52252 6.50714 4.64865 6.27723 4.64865C6.01326 4.64865 5.6982 4.51351 5.34057 4.36036C4.87224 4.16216 4.33579 3.93694 3.7738 3.94595C2.48802 3.96397 1.29592 4.73874 0.640256 5.96396C-0.705124 8.42342 0.291138 12.0541 1.59394 14.0541C2.23257 15.045 2.99893 16.1261 4.00371 16.0901C4.44649 16.0721 4.76155 15.9279 5.09363 15.7838C5.47681 15.6126 5.86851 15.4324 6.48159 15.4324C7.07764 15.4324 7.45231 15.6036 7.81845 15.7748C8.15906 15.9279 8.49114 16.0811 8.98502 16.0721C10.0239 16.0541 10.6795 15.0811 11.3181 14.0901C12.0079 13.027 12.3059 11.991 12.357 11.8378L12.3655 11.8198C12.3655 11.8198 12.357 11.8108 12.34 11.8108C12.11 11.7027 10.3474 10.8468 10.3304 8.55856C10.3134 6.63964 11.7269 5.66667 11.9483 5.51351C11.9653 5.50451 11.9738 5.49549 11.9738 5.49549C11.0712 4.08108 9.66622 3.92793 9.18086 3.89189ZM16.4016 15.973V1.13514H21.6554C24.3717 1.13514 26.2621 3.11712 26.2621 6.00901C26.2621 8.9009 24.3292 10.9009 21.5788 10.9009H18.573V15.973H16.4016ZM18.573 3.07207H21.0764C22.9668 3.07207 24.0396 4.13514 24.0396 6.00901C24.0396 7.88288 22.9582 8.95495 21.0679 8.95495H18.573V3.07207ZM33.4403 14.1892C32.8613 15.3514 31.601 16.0811 30.2301 16.0811C28.212 16.0811 26.7985 14.8018 26.7985 12.8829C26.7985 10.982 28.1609 9.88288 30.6899 9.72072L33.4062 9.54955V8.72973C33.4062 7.52252 32.6569 6.86487 31.3285 6.86487C30.2301 6.86487 29.4297 7.46847 29.2679 8.37838H27.3094C27.369 6.45946 29.0806 5.05405 31.3881 5.05405C33.8745 5.05405 35.4924 6.43243 35.4924 8.57658V15.964H33.4829V14.1802H33.4403V14.1892ZM30.8176 14.3243C29.6596 14.3243 28.9188 13.7387 28.9188 12.8288C28.9188 11.8919 29.6255 11.3514 30.9879 11.2703L33.4062 11.1081V11.9459C33.4062 13.3333 32.2907 14.3243 30.8176 14.3243ZM42.1767 16.5495C41.3082 19.1441 40.3119 20 38.1917 20C38.0299 20 37.4935 19.982 37.3657 19.9459V18.1622C37.502 18.1802 37.8341 18.1982 38.0044 18.1982C38.9666 18.1982 39.503 17.7658 39.8351 16.6577L40.0309 16L36.3439 5.1982H38.6174L41.1805 13.964H41.223L43.7861 5.1982H46L42.1767 16.5495Z" fill="white"/>
</svg>
