<svg width="186" height="127" viewBox="0 0 186 127" fill="none" xmlns="http://www.w3.org/2000/svg">
<g opacity="0.1">
<path d="M179.017 103.175C179.017 103.175 135.469 92.5865 96.4303 125.033C96.4303 125.033 91.7529 128.477 87.9365 124.146C87.9365 124.146 66.9396 105.604 35.3671 102.301C35.3671 102.301 24.9586 100.746 6.04344 102.995C6.04344 102.995 -3.67116 100.746 1.53309 90.8517C1.53309 90.8517 7.66254 84.1312 43.4883 89.1812C46.7137 89.6438 57.2378 91.7512 62.1722 93.5759C70.4091 96.6085 83.1691 102.211 92.6139 110.461C92.6139 110.461 123.672 82.692 174.327 88.2432C174.327 88.2432 187.524 88.5902 185.789 96.7499C185.789 96.7499 185.609 102.481 179.017 103.175Z" fill="white"/>
<path d="M132.86 86.6359C147.83 83.9374 160.024 84.7984 165.357 85.4409C167.233 85.6593 169.199 85.6207 169.521 85.3894C173.119 82.858 170.163 79.7869 170.163 79.7869C168.441 78.7974 162.723 77.3582 150.438 77.7052C149.063 77.7437 147.573 77.7951 145.967 77.8465C117.992 78.6817 92.8703 97.8283 92.8703 97.8283C91.7524 96.8645 86.4453 93.5235 82.4875 91.0691C79.9946 89.5143 73.107 85.9805 70.6527 85.0039C42.4598 73.7987 16.3614 79.0929 16.3614 79.0929C13.1875 82.0099 14.768 84.0531 16.0916 85.4794C17.2352 86.7259 20.2293 85.5436 22.2596 85.2738C25.7676 84.8112 30.021 84.8112 30.021 84.8112C55.4897 84.3229 71.2052 92.0843 79.9946 97.6998C81.6908 98.7792 83.1814 99.7557 84.4279 100.578C87.0236 102.3 89.4008 104.356 89.8249 104.69C93.3972 107.633 94.7593 105.397 94.7593 105.397C94.7593 105.397 119.611 89.026 132.86 86.6359Z" fill="white"/>
<path d="M24.2647 75.5742C24.2647 75.5742 62.9175 68.5453 90.2366 93.0117C90.2366 93.0117 92.8451 96.1342 95.3123 93.0117C95.3123 93.0117 123.287 68.6737 161.027 75.8312C161.027 75.8312 163.225 75.8954 163.7 74.6875C163.944 74.0707 163.944 73.1198 162.582 71.6678C162.582 71.6678 124.585 63.9963 92.9736 89.2337C92.9736 89.2337 65.1277 65.0372 23.4808 71.5393C23.4808 71.5393 19.7158 74.2763 24.2647 75.5742Z" fill="white"/>
<path d="M30.254 69.3296C30.254 69.3296 63.7411 62.3263 92.3195 86.1117C92.3195 86.1117 94.0028 86.7028 95.185 84.9423C95.2364 84.8652 95.275 84.8524 95.4806 84.6853C98.1919 82.2695 119.806 64.3695 154.912 69.5866C154.912 69.5866 156.158 69.3938 155.927 68.5329C155.837 68.1859 155.927 67.7233 154.912 67.1194C154.912 67.1194 121.592 59.4351 92.9748 83.516C92.9748 83.516 68.6369 61.2598 30.254 67.2479C30.254 67.2479 27.8896 68.0831 30.254 69.3296Z" fill="white"/>
<path d="M123.442 35.8907L114.64 44.6159C113.188 46.0808 110.823 46.0808 109.359 44.6159C107.907 43.1638 107.907 40.7994 109.359 39.3345L118.161 30.6094" fill="white"/>
<path d="M100.838 53.0705C100.607 52.8392 100.71 52.338 101.07 51.9782L110.579 42.5078C110.938 42.148 111.427 42.0452 111.671 42.2893C111.902 42.5206 111.799 43.0089 111.44 43.3816L101.931 52.8392C101.571 53.2118 101.083 53.3146 100.838 53.0705Z" fill="white"/>
<path d="M135.379 11.9374L142.177 18.7351L150.619 10.3055L143.809 3.50781L135.379 11.9374Z" fill="white"/>
<path d="M153.625 12.3762C153.214 12.7874 152.559 12.7874 152.147 12.3762L141.597 1.77492C141.186 1.37657 141.186 0.708375 141.597 0.297175C142.009 -0.101175 142.664 -0.101174 143.075 0.310026L153.625 10.8984C154.036 11.3096 154.036 11.9778 153.625 12.3762Z" fill="white"/>
<mask id="mask0_322_2790" style="mask-type:luminance" maskUnits="userSpaceOnUse" x="108" y="30" width="16" height="16">
<path d="M123.439 35.8985L114.643 44.6211C113.184 46.0796 110.82 46.0796 109.361 44.6211C107.903 43.1626 107.903 40.7982 109.361 39.3398L118.157 30.6172" fill="white"/>
</mask>
<g mask="url(#mask0_322_2790)">
<path opacity="0.4" d="M122.054 33.8751L113.265 42.6003C111.8 44.0652 109.435 44.0652 107.983 42.6003C106.519 41.1482 106.519 38.7838 107.983 37.3189L116.773 28.5938" fill="white"/>
</g>
<path d="M143.821 21.1283L125.805 39.0026C122.811 41.9967 117.967 41.9967 114.986 39.0026C111.992 36.0214 111.992 31.177 114.986 28.1829L133.001 10.3086" fill="white"/>
<path d="M134.762 27.4768L124.508 37.6154C122.208 39.9156 118.494 39.9156 116.194 37.6154C113.907 35.3281 113.907 31.6016 116.194 29.3015L118.224 27.2969" fill="white"/>
<path d="M147.266 23.1178C146.713 23.6704 145.827 23.6704 145.274 23.1178L130.959 8.75153C130.407 8.19898 130.407 7.29948 130.959 6.74693C131.512 6.20723 132.411 6.20723 132.964 6.75978L147.279 21.1261C147.831 21.6786 147.831 22.5653 147.266 23.1178Z" fill="white"/>
<path d="M105.528 60.7184C105.528 60.7013 105.524 60.6884 105.515 60.6799C105.515 60.6799 105.515 60.6756 105.515 60.667C105.181 59.9603 104.526 58.9965 103.19 57.7501L101.185 55.7969C101.185 55.7969 98.6149 58.2512 97.8053 59.1122C97.2913 59.6519 96.7517 60.3072 96.5846 61.5922C96.5589 61.7636 96.5461 61.9349 96.5461 62.1062C96.5375 62.2519 96.5332 62.4061 96.5332 62.5688C96.5332 62.5688 96.5461 62.6973 96.5975 62.9286C96.7131 63.7125 97.0344 64.4321 97.5098 65.036C98.0495 65.7813 98.8847 66.4624 100.183 66.7194C100.217 66.7279 100.26 66.7365 100.311 66.7451C100.585 66.7965 100.868 66.8222 101.159 66.8222C103.716 66.8222 105.785 64.7662 105.785 62.2219C105.785 62.2047 105.785 62.1876 105.785 62.1705C105.811 61.785 105.772 61.2581 105.528 60.7184Z" fill="white"/>
<mask id="mask1_322_2790" style="mask-type:luminance" maskUnits="userSpaceOnUse" x="96" y="55" width="10" height="12">
<path d="M101.186 55.8281C101.186 55.8281 98.6158 58.276 97.8024 59.1357C97.1702 59.8039 96.4994 60.6276 96.5366 62.5937C96.5366 62.5937 96.8386 66.067 100.187 66.7506C100.494 66.8136 102.166 66.8997 103.072 66.3664C104.132 65.7393 105.447 64.8167 105.724 62.726C105.751 62.5217 105.936 61.6389 105.534 60.7407C105.217 60.0339 104.552 59.0471 103.188 57.7749L101.186 55.8281Z" fill="white"/>
</mask>
<g mask="url(#mask1_322_2790)">
<path opacity="0.4" d="M94.0781 59.6153C94.0781 62.1339 96.1213 64.1642 98.6399 64.1642C101.146 64.1642 103.189 62.1339 103.189 59.6153C103.189 57.0967 101.146 55.0664 98.6399 55.0664C96.1213 55.0664 94.0781 57.0967 94.0781 59.6153Z" fill="white"/>
</g>
<path d="M132.86 15.3042C133.143 15.5869 133.168 15.9981 132.937 16.2423C132.693 16.4736 132.269 16.435 131.999 16.1523L130.688 14.8416C130.405 14.5589 130.38 14.1349 130.624 13.9036C130.855 13.6594 131.279 13.698 131.562 13.9807L132.86 15.3042Z" fill="white"/>
<path d="M129.712 18.4421C129.994 18.7248 130.033 19.1488 129.789 19.3801C129.558 19.6243 129.134 19.5857 128.851 19.303L127.553 17.9795C127.27 17.6968 127.232 17.2727 127.476 17.0414C127.72 16.8101 128.131 16.8487 128.414 17.1314L129.712 18.4421Z" fill="white"/>
<path d="M126.641 21.5269C126.924 21.8096 126.95 22.2336 126.718 22.4649C126.474 22.6962 126.05 22.6577 125.767 22.375L124.47 21.0643C124.187 20.7816 124.161 20.3575 124.392 20.1262C124.637 19.8821 125.061 19.9206 125.331 20.2033L126.641 21.5269Z" fill="white"/>
<path d="M123.479 24.687C123.762 24.9697 123.787 25.3938 123.556 25.6251C123.312 25.8564 122.888 25.8178 122.605 25.5351L121.307 24.2244C121.025 23.9417 120.999 23.5177 121.23 23.2864C121.474 23.0422 121.899 23.0808 122.168 23.3635L123.479 24.687Z" fill="white"/>
<mask id="mask2_322_2790" style="mask-type:luminance" maskUnits="userSpaceOnUse" x="114" y="27" width="21" height="13">
<path d="M134.767 27.4728L124.507 37.6166C122.212 39.9116 118.491 39.9116 116.196 37.6166C113.901 35.3216 113.901 31.6002 116.196 29.3052L118.229 27.2891" fill="white"/>
</mask>
<g mask="url(#mask2_322_2790)">
<path opacity="0.4" d="M132.539 25.3791L122.285 35.5306C119.985 37.8179 116.259 37.8179 113.971 35.5306C111.671 33.2305 111.671 29.5168 113.971 27.2167L116.002 25.1992" fill="white"/>
</g>
<path d="M120.396 27.7713C120.679 28.054 120.705 28.4652 120.474 28.7094C120.229 28.9407 119.818 28.9021 119.536 28.6194L118.225 27.3087C117.955 27.026 117.916 26.602 118.161 26.3578C118.392 26.1265 118.816 26.1651 119.099 26.4478L120.396 27.7713Z" fill="white"/>
<path d="M55.7988 51.0015L63.9072 59.1098C67.7622 62.9648 74.0587 62.9648 77.9008 59.1098C81.7558 55.2677 81.7558 48.9583 77.9008 45.1162L69.7925 37.0078L55.7988 51.0015Z" fill="white"/>
<path d="M69.7788 36.9961L61.799 29.0162C57.944 25.1612 51.6475 25.1612 47.8053 29.0162C43.9503 32.8584 43.9503 39.1549 47.8053 43.0099L55.7852 50.9897L69.7788 36.9961Z" fill="white"/>
<path opacity="0.4" d="M65.8477 40.9435L76.4232 51.5191C76.6031 51.699 76.8473 51.7889 77.0786 51.7889C77.3227 51.7889 77.554 51.699 77.7339 51.5191C78.1066 51.1593 78.1066 50.5682 77.7339 50.2084L67.1584 39.6328L65.8477 40.9435Z" fill="white"/>
<path d="M67.1588 39.6332L57.3286 29.8029C56.9688 29.4303 56.3777 29.4303 56.0179 29.8029C55.6581 30.1627 55.6581 30.7538 56.0179 31.1136L65.8481 40.9439L67.1588 39.6332Z" fill="#FCFCFC"/>
</g>
</svg>
