<svg width="18" height="18" viewBox="0 0 18 18" fill="none" xmlns="http://www.w3.org/2000/svg">
<path d="M3.11069 0.15205C3.43316 0.05136 3.76773 0 4.10456 0C5.72359 0 6.92309 1.42565 6.92308 3.03791V6.65441C6.92308 8.2667 5.72358 9.6923 4.10456 9.6923C3.76772 9.6923 3.43316 9.641 3.11069 9.5403L2.86418 9.4633C2.78002 9.437 2.69721 9.4079 2.61584 9.376C3.9001 11.9841 6.01591 14.0999 8.624 15.3842C8.5921 15.3028 8.563 15.22 8.5367 15.1358L8.4597 14.8893C8.359 14.5668 8.3077 14.2323 8.3077 13.8954C8.3077 12.2764 9.7333 11.0769 11.3456 11.0769H14.9621C16.5743 11.0769 18 12.2764 18 13.8954C18 14.2323 17.9486 14.5668 17.8479 14.8893L17.771 15.1358C17.3226 16.5717 16.0401 17.6116 14.506 17.882C13.6128 18.0393 12.6949 18.0394 11.8017 17.882C11.7665 17.8758 11.7315 17.8692 11.6966 17.8622C5.84285 16.7359 1.26404 12.1571 0.13782 6.30329C0.13083 6.26843 0.12424 6.23344 0.11805 6.19831C-0.03935 5.3051 -0.03935 4.38721 0.11805 3.494C0.38837 1.95989 1.42827 0.67739 2.86419 0.22902L3.11069 0.15205Z" fill="#325D7B"/>
<path d="M10.1128 1.5909C11.8866 1.0855 13.8181 1.50823 15.1548 2.84495C16.4916 4.18167 16.9143 6.11323 16.4089 7.88697C16.3041 8.25477 16.5173 8.63777 16.885 8.74257C17.2527 8.84727 17.6357 8.63417 17.7405 8.26647C18.3727 6.04753 17.8531 3.5851 16.1339 1.86588C14.4147 0.146663 11.9523 -0.372936 9.73338 0.259284C9.36558 0.364054 9.15248 0.747083 9.25728 1.1148C9.36198 1.48251 9.74508 1.69567 10.1128 1.5909Z" fill="#325D7B"/>
<path d="M11.8462 4.10734C12.3133 4.0143 12.905 4.17118 13.3669 4.63307C13.8288 5.09496 13.9857 5.68665 13.8927 6.15379C13.818 6.52877 14.0614 6.8933 14.4364 6.96799C14.8114 7.04268 15.1759 6.79924 15.2506 6.42426C15.4416 5.46533 15.1065 4.41449 14.346 3.654C13.5855 2.89351 12.5347 2.55841 11.5757 2.7494C11.2008 2.82409 10.9573 3.18862 11.032 3.56361C11.1067 3.93859 11.4712 4.18203 11.8462 4.10734Z" fill="#325D7B"/>
</svg>
