<svg width="20" height="20" viewBox="0 0 20 20" fill="none" xmlns="http://www.w3.org/2000/svg">
<g clip-path="url(#clip0_374_3236)">
<path d="M2.29688 11.8408C2.29688 12.8188 8.24145 12.8188 8.24145 11.8408C8.24145 11.0137 7.28864 9.8963 6.00208 9.56988C6.53966 9.20921 6.91037 8.49507 6.91037 7.85297C6.91037 6.94657 6.17616 6.21094 5.26905 6.21094C4.36264 6.21094 3.6276 6.94657 3.6276 7.85297C3.6276 8.49519 3.99796 9.20921 4.53412 9.56988C3.2504 9.8963 2.29688 11.0137 2.29688 11.8408ZM5.13701 10.0472H5.12981L4.85795 9.73451C4.99022 9.78127 5.12579 9.81139 5.26964 9.81139C5.41312 9.81139 5.5487 9.78269 5.68097 9.73581L5.40875 10.0472H5.40191L6.10376 11.7429L5.26964 12.5742L4.43586 11.7429L5.13701 10.0472Z" fill="#325D7B"/>
<path d="M8.24146 9.39116C8.24146 9.60397 8.41152 9.77509 8.62433 9.77509H13.2763C13.3368 9.73199 13.4079 9.69313 13.5051 9.66585V9.00781H8.62433C8.41258 9.00781 8.24146 9.17929 8.24146 9.39116Z" fill="#325D7B"/>
<path d="M13.505 7.26172H8.62433C8.41258 7.26172 8.24146 7.43249 8.24146 7.64542C8.24146 7.85681 8.41152 8.02912 8.62433 8.02912H13.505V7.26172Z" fill="#325D7B"/>
<path d="M2.38133 15.1882C1.59361 15.1882 0.952814 14.5467 0.952814 13.76V5.02089C0.952814 4.23353 1.59361 3.59273 2.38133 3.59273H13.505V2.64062H2.38133C1.06784 2.64062 0 3.70788 0 5.02089V13.7593C0 15.0723 1.06784 16.1387 2.38133 16.1387H13.5697L13.8243 15.1866H2.38133V15.1882Z" fill="#325D7B"/>
<path d="M18.1865 2.71875V3.71443C18.6928 3.93445 19.0473 4.43755 19.0473 5.02319V13.7616C19.0473 14.4978 18.4841 15.0984 17.7687 15.1747L18.0168 16.1023C19.1409 15.911 20.0001 14.9387 20.0001 13.7616V5.02319C20 3.90752 19.2249 2.97514 18.1865 2.71875Z" fill="#325D7B"/>
<path d="M14.109 8.91976C14.3348 8.65156 14.7238 8.63526 15.1489 8.9298C15.5056 8.18011 16.1845 8.18082 16.5418 8.92909C16.9669 8.63455 17.3552 8.65085 17.5817 8.91976C17.719 9.08297 17.7737 9.31409 17.7493 9.62551C17.7765 9.6228 17.7931 9.62988 17.8191 9.62835V1.91797H13.8733V9.62976C13.8992 9.62976 13.915 9.62327 13.9438 9.62539C13.9163 9.31491 13.9724 9.08297 14.109 8.91976Z" fill="#325D7B"/>
<path d="M15.1849 14.0656C15.1734 14.0627 15.1633 14.0591 15.1512 14.0547C14.8901 14.2432 14.6514 14.3007 14.455 14.2634L13.6101 17.4174L14.4284 16.8608L14.7916 17.7352L15.6351 14.5877C15.4596 14.5105 15.3079 14.3387 15.1849 14.0656Z" fill="#325D7B"/>
<path d="M16.5403 14.0547C16.5289 14.0591 16.5181 14.0626 16.5066 14.0656C16.3643 14.3841 16.1816 14.5603 15.9686 14.6114L16.8999 18.0854L17.2149 16.8945L18.0829 17.7682L17.1474 14.2798C16.9675 14.282 16.7612 14.2151 16.5403 14.0547Z" fill="#325D7B"/>
<path d="M16.2793 13.803C16.3901 13.7814 16.4951 13.7455 16.6008 13.7095C17.1753 14.1927 17.4882 14.0116 17.3573 13.2723C17.44 13.2005 17.517 13.1226 17.5881 13.0393C18.3288 13.1715 18.5085 12.8581 18.0253 12.2841C18.062 12.1791 18.0979 12.075 18.1188 11.9634C18.8135 11.7073 18.8135 11.3507 18.1173 11.0948C18.0972 10.984 18.0619 10.879 18.0253 10.774C18.5085 10.1995 18.3274 9.88663 17.5881 10.0175C17.5155 9.93564 17.4385 9.85781 17.3565 9.78589C17.4874 9.04636 17.1746 8.86579 16.6001 9.34881C16.4951 9.31279 16.3915 9.27748 16.2793 9.25669C16.0233 8.56027 15.6666 8.56027 15.4107 9.25669C15.3007 9.27748 15.195 9.31279 15.09 9.34881C14.5154 8.86591 14.2025 9.04636 14.3348 9.78589C14.2514 9.85923 14.1738 9.93564 14.1017 10.0182C13.3625 9.88674 13.1813 10.2002 13.6645 10.774C13.6286 10.8797 13.5927 10.9839 13.5725 11.0948C12.8765 11.3507 12.8765 11.7089 13.5725 11.9634C13.5934 12.0742 13.6287 12.1791 13.6645 12.2848C13.1813 12.8594 13.3625 13.1722 14.1017 13.0407C14.1744 13.124 14.2514 13.2003 14.3333 13.2721C14.2025 14.0123 14.5153 14.1926 15.0898 13.7093C15.1948 13.7454 15.2997 13.7813 15.412 13.8029C15.6666 14.4984 16.0248 14.4984 16.2793 13.803Z" fill="#325D7B"/>
</g>
<defs>
<clipPath id="clip0_374_3236">
<rect width="20" height="20" fill="white"/>
</clipPath>
</defs>
</svg>
