<svg width="12" height="12" viewBox="0 0 12 12" fill="none" xmlns="http://www.w3.org/2000/svg">
<path d="M6.00007 2.7912C6.00007 2.65165 6.00007 2.58187 6.04715 2.53854C6.09428 2.49521 6.15996 2.5007 6.29139 2.51168C6.80414 2.5545 7.30242 2.70999 7.75007 2.96844C8.28213 3.27563 8.72395 3.71746 9.03119 4.24953C9.33837 4.7816 9.50007 5.38516 9.50007 5.99953C9.50007 6.6139 9.33837 7.21747 9.03119 7.74953C8.72395 8.28159 8.28213 8.72341 7.75007 9.03065C7.21801 9.33783 6.61444 9.49953 6.00007 9.49953C5.3857 9.49953 4.78213 9.33783 4.25007 9.03065C3.80241 8.77217 3.41863 8.41838 3.12516 7.99576C3.04995 7.88743 3.01234 7.83324 3.02631 7.77082C3.04028 7.70835 3.10072 7.67347 3.22157 7.6037L5.85424 6.08371C5.9254 6.04264 5.96099 6.02211 5.98053 5.98827C6.00007 5.95438 6.00007 5.91331 6.00007 5.83112V2.7912Z" fill="#325D7B"/>
<path d="M6 11.25C8.8995 11.25 11.25 8.8995 11.25 6C11.25 3.1005 8.8995 0.75 6 0.75C3.1005 0.75 0.75 3.1005 0.75 6C0.75 8.8995 3.1005 11.25 6 11.25Z" stroke="#325D7B" stroke-width="1.5"/>
</svg>
