<svg width="22" height="20" viewBox="0 0 22 20" fill="none" xmlns="http://www.w3.org/2000/svg">
<path d="M11.6558 15.4375H11.2402V16.2747H11.6558C11.919 16.2747 12.1332 16.0867 12.1332 15.8558C12.1332 15.6255 11.919 15.4375 11.6558 15.4375Z" fill="white"/>
<path d="M11.5621 13.125C9.89704 13.125 8.54688 14.4745 8.54688 16.1395C8.54688 17.8052 9.89704 19.154 11.5621 19.154C13.2271 19.154 14.5773 17.8052 14.5773 16.1395C14.5772 14.4745 13.2271 13.125 11.5621 13.125ZM11.6567 16.7384H11.2411V17.348C11.2411 17.4648 11.1458 17.5595 11.029 17.5595H10.9222C10.8054 17.5595 10.7107 17.4648 10.7107 17.348V15.1821C10.7107 15.066 10.8054 14.9713 10.9222 14.9713H11.6567C12.2127 14.9713 12.6652 15.3675 12.6652 15.8542C12.6651 16.3423 12.2126 16.7384 11.6567 16.7384Z" fill="white"/>
<path d="M9.81894 10.6175C9.81894 11.1936 8.72255 11.6595 7.37041 11.6595C6.01758 11.6595 4.92188 11.1936 4.92188 10.6175C4.92188 10.0415 6.01758 9.57422 7.37041 9.57422C8.72259 9.57418 9.81894 10.0415 9.81894 10.6175Z" fill="white"/>
<path d="M4.92192 12.3791C4.92192 12.9552 6.01762 13.4218 7.37045 13.4218C8.72263 13.4218 9.81898 12.9552 9.81898 12.3791V12.12C9.81898 12.0407 9.77936 11.9669 9.71225 11.9226C9.64577 11.8783 9.56186 11.8702 9.48868 11.9024C9.48868 11.9024 8.72263 12.3751 7.37045 12.3751C6.01762 12.3751 5.25222 11.9024 5.25222 11.9024C5.17836 11.8702 5.09444 11.8782 5.02796 11.9226C4.96149 11.9669 4.92188 12.0407 4.92188 12.12V12.3791H4.92192Z" fill="white"/>
<path d="M8.16133 14.1429C7.96191 14.4792 7.81354 14.8465 7.72292 15.2345C7.60678 15.2426 7.48995 15.246 7.36976 15.246C6.01827 15.246 4.92188 14.7794 4.92188 14.2019V13.9448C4.92188 13.8649 4.9608 13.7897 5.02796 13.7468C5.09375 13.7025 5.17836 13.6944 5.25153 13.7266C5.25153 13.7266 6.01827 14.1993 7.36976 14.1993C7.66182 14.1993 7.92569 14.1778 8.16133 14.1429Z" fill="white"/>
<path d="M7.72559 17.0592C7.61009 17.0672 7.48995 17.0699 7.36976 17.0699C6.01827 17.0699 4.92188 16.6026 4.92188 16.0279V15.7688C4.92188 15.6895 4.9608 15.6143 5.02796 15.57C5.09375 15.5271 5.17836 15.519 5.25153 15.5499C5.25153 15.5499 6.01827 16.0239 7.36976 16.0239C7.4557 16.0239 7.53829 16.0218 7.61954 16.0185C7.61683 16.0588 7.61683 16.1004 7.61683 16.1407C7.61679 16.4563 7.65374 16.7637 7.72559 17.0592Z" fill="white"/>
<path d="M8.60511 18.7511C8.24323 18.8424 7.82093 18.8948 7.36976 18.8948C6.01827 18.8948 4.92188 18.4275 4.92188 17.8528V17.5937C4.92188 17.5131 4.9608 17.4386 5.02796 17.3949C5.09375 17.3506 5.17836 17.3432 5.25153 17.3748C5.25153 17.3748 6.01827 17.8474 7.36976 17.8474C7.59131 17.8474 7.79945 17.8354 7.98812 17.8139C8.14926 18.1556 8.35671 18.4705 8.60511 18.7511Z" fill="white"/>
<path d="M16.5123 6.65137C16.5123 7.22741 15.4159 7.69405 14.0638 7.69405C12.7109 7.69405 11.6152 7.22745 11.6152 6.65137C11.6152 6.07529 12.7109 5.60938 14.0638 5.60938C15.4159 5.60938 16.5123 6.07533 16.5123 6.65137Z" fill="white"/>
<path d="M11.6153 10.6531C11.6153 11.2278 12.711 11.6951 14.0638 11.6951C15.416 11.6951 16.5123 11.2278 16.5123 10.6531V10.394C16.5123 10.3134 16.4727 10.2395 16.4056 10.1952C16.3391 10.1516 16.2552 10.1442 16.182 10.1751C16.182 10.1751 15.416 10.6484 14.0638 10.6484C12.711 10.6484 11.9456 10.1751 11.9456 10.1751C11.8717 10.1442 11.7878 10.1516 11.7213 10.1952C11.6549 10.2395 11.6152 10.3134 11.6152 10.394V10.6531H11.6153Z" fill="white"/>
<path d="M11.6153 8.6757C11.6153 9.25173 12.711 9.71838 14.0638 9.71838C15.416 9.71838 16.5123 9.25178 16.5123 8.6757V8.4172C16.5123 8.33732 16.4727 8.26345 16.4056 8.21915C16.3391 8.17485 16.2552 8.16746 16.182 8.199C16.182 8.199 15.416 8.67166 14.0638 8.67166C12.711 8.67166 11.9456 8.199 11.9456 8.199C11.8717 8.16746 11.7878 8.17481 11.7213 8.21915C11.6549 8.2635 11.6152 8.33732 11.6152 8.4172V8.6757H11.6153Z" fill="white"/>
<path d="M16.4049 16.121C16.3384 16.0774 16.2545 16.07 16.1813 16.1009C16.1813 16.1009 15.9147 16.264 15.4226 16.399C15.3971 16.7857 15.3152 17.1563 15.1836 17.5041C15.9718 17.3309 16.5116 16.9818 16.5116 16.5776V16.3191C16.5116 16.2392 16.472 16.1653 16.4049 16.121Z" fill="white"/>
<path d="M16.4037 14.1449C16.3373 14.1006 16.2534 14.0932 16.1802 14.1248C16.1802 14.1248 15.7861 14.3665 15.0684 14.5041C15.2114 14.8102 15.3154 15.1372 15.3745 15.4809C16.0566 15.2956 16.5105 14.972 16.5105 14.6014V14.3423C16.5105 14.2631 16.4709 14.1892 16.4037 14.1449Z" fill="white"/>
<path d="M16.4045 12.1721C16.338 12.1284 16.2541 12.1204 16.1809 12.1519C16.1809 12.1519 15.4149 12.6253 14.0627 12.6253C13.5612 12.6253 13.1409 12.5601 12.8105 12.4782C13.4846 12.7085 14.0761 13.1181 14.5259 13.6525C15.6559 13.5598 16.5112 13.1375 16.5112 12.6293V12.3701C16.5113 12.2909 16.4717 12.2157 16.4045 12.1721Z" fill="white"/>
<path d="M11.4173 0.847656H10.582V2.7571H11.4173V0.847656Z" fill="white"/>
<path d="M6.81716 3.76689L6.09339 4.1845L5.13867 2.53154L5.86244 2.11328L6.81716 3.76689Z" fill="white"/>
<path d="M3.33749 6.9391L2.91923 7.66286L1.26562 6.70814L1.6832 5.98438L3.33749 6.9391Z" fill="white"/>
<path d="M20.7353 16.9859L20.3177 17.7097L18.6641 16.755L19.0817 16.0312L20.7353 16.9859Z" fill="white"/>
<path d="M1.90945 11.4297H0V12.2662H1.90945V11.4297Z" fill="white"/>
<path d="M21.9999 11.4303L21.9992 12.2662L20.0898 12.2656V11.4297L21.9999 11.4303Z" fill="white"/>
<path d="M2.91923 16.0312L3.33685 16.755L1.6832 17.7097L1.26562 16.9859L2.91923 16.0312Z" fill="white"/>
<path d="M20.3184 5.98438L20.7353 6.70814L19.0817 7.66286L18.6641 6.9391L20.3184 5.98438Z" fill="white"/>
<path d="M16.1383 2.11328L16.8614 2.53154L15.9067 4.1845L15.1836 3.76689L16.1383 2.11328Z" fill="white"/>
</svg>
