<svg width="14" height="14" viewBox="0 0 14 14" fill="none" xmlns="http://www.w3.org/2000/svg">
<path fill-rule="evenodd" clip-rule="evenodd" d="M5.57592 2.15666C6.27383 1.17955 7.72603 1.17955 8.42399 2.15666L8.53512 2.31222C8.65791 2.48418 8.86418 2.57626 9.07418 2.55293L9.56943 2.4979C10.6841 2.37405 11.6259 3.31585 11.502 4.43045L11.447 4.92571C11.4237 5.13574 11.5157 5.34197 11.6877 5.46481L11.8433 5.57592C12.8203 6.27383 12.8203 7.72603 11.8433 8.42399L11.6877 8.53512C11.5157 8.65791 11.4237 8.86418 11.447 9.07418L11.502 9.56943C11.6259 10.6841 10.6841 11.6259 9.56943 11.502L9.07418 11.447C8.86418 11.4237 8.65791 11.5157 8.53512 11.6877L8.42399 11.8433C7.72603 12.8203 6.27388 12.8203 5.57592 11.8433L5.46481 11.6877C5.34197 11.5157 5.13574 11.4237 4.92571 11.447L4.43045 11.502C3.31585 11.6259 2.37405 10.6841 2.4979 9.56943L2.55293 9.07418C2.57626 8.86418 2.48418 8.65791 2.31222 8.53512L2.15666 8.42399C1.17955 7.72603 1.17955 6.27388 2.15666 5.57592L2.31222 5.46481C2.48418 5.34197 2.57626 5.13574 2.55293 4.92571L2.4979 4.43045C2.37405 3.31585 3.31585 2.37405 4.43045 2.4979L4.92571 2.55293C5.13574 2.57626 5.34197 2.48418 5.46481 2.31222L5.57592 2.15666ZM9.16243 5.42081C9.39023 5.64862 9.39023 6.01798 9.16243 6.24577L6.93474 8.47346C6.64862 8.75964 6.18463 8.75964 5.89851 8.47346L4.83748 7.41243C4.60967 7.18464 4.60967 6.81528 4.83748 6.58748C5.06529 6.35969 5.43463 6.35969 5.66244 6.58748L6.41663 7.34168L8.33748 5.42081C8.56528 5.19301 8.93464 5.19301 9.16243 5.42081Z" fill="white"/>
</svg>
