<svg width="20" height="20" viewBox="0 0 20 20" fill="none" xmlns="http://www.w3.org/2000/svg">
<g clip-path="url(#clip0_303_7304)">
<path d="M16.3014 5.83333C16.492 4.74602 15.6553 3.75 14.5514 3.75H5.44826C4.34438 3.75 3.50771 4.74602 3.69822 5.83333" stroke="#325D7B" stroke-width="1.5"/>
<path d="M14.5832 3.7513C14.6069 3.5354 14.6187 3.42743 14.6189 3.33826C14.6208 2.48524 13.9782 1.7685 13.1301 1.67749C13.0414 1.66797 12.9328 1.66797 12.7157 1.66797H7.28416C7.06696 1.66797 6.95835 1.66797 6.86968 1.67749C6.02153 1.7685 5.37901 2.48524 5.38086 3.33825C5.38106 3.42743 5.39288 3.53539 5.41652 3.7513" stroke="#325D7B" stroke-width="1.5"/>
<path d="M12.151 11.3498C12.6164 11.6383 12.6164 12.3851 12.151 12.6736L9.34137 14.4153C8.88912 14.6957 8.33337 14.3308 8.33337 13.7535V10.2699C8.33337 9.69265 8.88912 9.32774 9.34137 9.60807L12.151 11.3498Z" stroke="#325D7B" stroke-width="1.5"/>
<path d="M1.98628 11.4968C1.61459 8.86044 1.42875 7.54231 2.21862 6.68913C3.0085 5.83594 4.41467 5.83594 7.22701 5.83594H12.773C15.5854 5.83594 16.9915 5.83594 17.7814 6.68913C18.5713 7.54231 18.3854 8.86044 18.0138 11.4968L17.6613 13.9968C17.3698 16.0642 17.2241 17.0979 16.4764 17.7169C15.7288 18.3359 14.626 18.3359 12.4205 18.3359H7.57949C5.37403 18.3359 4.2713 18.3359 3.52364 17.7169C2.77598 17.0979 2.63024 16.0642 2.33875 13.9968L1.98628 11.4968Z" stroke="#325D7B" stroke-width="1.5"/>
</g>
<defs>
<clipPath id="clip0_303_7304">
<rect width="20" height="20" fill="white"/>
</clipPath>
</defs>
</svg>
