<svg width="14" height="14" viewBox="0 0 14 14" fill="none" xmlns="http://www.w3.org/2000/svg">
<path d="M1.75 4.07756C5.14176 2.84654 8.85827 2.84654 12.25 4.07756" stroke="#FF3C3F" stroke-width="2" stroke-linecap="round" stroke-linejoin="round"/>
<path d="M4.67236 3.33724C4.67236 2.7184 4.91819 2.12494 5.35578 1.68736C5.79336 1.24978 6.38686 1.00391 7.00571 1.00391C7.62451 1.00391 8.21806 1.24978 8.65561 1.68736C9.09317 2.12494 9.33905 2.7184 9.33905 3.33724" stroke="#FF3C3F" stroke-width="2" stroke-linecap="round" stroke-linejoin="round"/>
<path d="M7 7.58398V10.5007" stroke="#FF3C3F" stroke-width="2" stroke-linecap="round" stroke-linejoin="round"/>
<path d="M11.0833 5.82812L10.6925 10.4948C10.6298 11.1254 10.3381 11.7111 9.87264 12.1411C9.40714 12.5711 8.80019 12.8155 8.16663 12.8281H5.83329C5.19973 12.8155 4.59275 12.5711 4.12728 12.1411C3.66181 11.7111 3.37014 11.1254 3.30747 10.4948L2.91663 5.82812" stroke="#FF3C3F" stroke-width="2" stroke-linecap="round" stroke-linejoin="round"/>
</svg>
