<svg width="24" height="24" viewBox="0 0 24 24" fill="none" xmlns="http://www.w3.org/2000/svg">
<g clip-path="url(#clip0_280_6940)">
<path d="M22.8972 12.0008L23.9501 9.25453C24.0656 8.95155 23.9756 8.60807 23.7222 8.40259L21.4393 6.55171L20.9774 3.64641C20.9264 3.32543 20.6744 3.07495 20.3534 3.02395L17.4481 2.56199L15.5987 0.277643C15.3947 0.0241601 15.0438 -0.0658337 14.7483 0.0496584L12.0005 1.10409L9.25415 0.0511583C8.94967 -0.0658337 8.6092 0.0271599 8.40371 0.279143L6.55284 2.56349L3.64754 3.02545C3.32806 3.07645 3.07607 3.32843 3.02508 3.64791L2.56311 6.55321L0.278765 8.40409C0.0267825 8.60807 -0.0647113 8.95155 0.0507808 9.25453L1.10371 12.0008L0.0507808 14.7472C-0.0662112 15.0501 0.0267825 15.3936 0.278765 15.5976L2.56311 17.447L3.02508 20.3523C3.07607 20.6732 3.32656 20.9252 3.64754 20.9762L6.55284 21.4382L8.40371 23.721C8.6092 23.976 8.95267 24.066 9.25565 23.949L12.0005 22.8976L14.7468 23.9505C14.8338 23.9835 14.9238 24 15.0153 24C15.2357 24 15.4532 23.9025 15.5987 23.721L17.4481 21.4382L20.3534 20.9762C20.6744 20.9252 20.9264 20.6732 20.9774 20.3523L21.4393 17.447L23.7222 15.5976C23.9756 15.3921 24.0656 15.0501 23.9501 14.7472L22.8972 12.0008Z" fill="black"/>
<path d="M9.75082 10.4997C8.51041 10.4997 7.50098 9.49026 7.50098 8.24985C7.50098 7.00943 8.51041 6 9.75082 6C10.9912 6 12.0007 7.00943 12.0007 8.24985C12.0007 9.49026 10.9912 10.4997 9.75082 10.4997ZM9.75082 7.4999C9.33685 7.4999 9.00087 7.83587 9.00087 8.24985C9.00087 8.66382 9.33685 8.99979 9.75082 8.99979C10.1648 8.99979 10.5008 8.66382 10.5008 8.24985C10.5008 7.83587 10.1648 7.4999 9.75082 7.4999Z" fill="white"/>
<path d="M14.2508 17.9997C13.0104 17.9997 12.001 16.9903 12.001 15.7498C12.001 14.5094 13.0104 13.5 14.2508 13.5C15.4912 13.5 16.5007 14.5094 16.5007 15.7498C16.5007 16.9903 15.4912 17.9997 14.2508 17.9997ZM14.2508 14.9999C13.8384 14.9999 13.5009 15.3374 13.5009 15.7498C13.5009 16.1623 13.8384 16.4998 14.2508 16.4998C14.6633 16.4998 15.0008 16.1623 15.0008 15.7498C15.0008 15.3374 14.6633 14.9999 14.2508 14.9999Z" fill="white"/>
<path d="M8.2505 18C8.09901 18 7.94752 17.955 7.81553 17.8605C7.47805 17.619 7.40006 17.1511 7.64154 16.8136L15.141 6.31431C15.3825 5.97683 15.8505 5.89884 16.188 6.14032C16.5255 6.38031 16.6019 6.84977 16.362 7.18575L8.86246 17.685C8.71397 17.8905 8.48449 18 8.2505 18Z" fill="white"/>
</g>
<defs>
<clipPath id="clip0_280_6940">
<rect width="24" height="24" fill="white"/>
</clipPath>
</defs>
</svg>
