<svg width="16" height="16" viewBox="0 0 16 16" fill="none" xmlns="http://www.w3.org/2000/svg">
<path fill-rule="evenodd" clip-rule="evenodd" d="M10.2502 13.2497C10.2502 14.4997 9.01516 15.333 8.05016 15.333C7.3785 15.333 7.326 14.823 7.22266 13.8163C7.17683 13.3747 7.12183 12.838 7.00016 12.208C6.6785 10.5397 5.56683 8.40801 4.5035 7.77051V2.83301C4.50016 0.958008 5.12516 0.333008 7.8335 0.333008H10.9777C12.791 0.333008 13.2302 1.52717 13.3935 1.96968L13.4043 1.99967C13.4993 2.25467 13.7027 2.45551 13.936 2.68301C14.1943 2.93801 14.4893 3.22717 14.7085 3.66634C14.9677 4.18551 14.9335 4.64717 14.9027 5.05801C14.8835 5.30717 14.866 5.53718 14.9168 5.74967C14.9702 5.97468 15.0385 6.14551 15.1043 6.30884C15.2235 6.60551 15.3335 6.88051 15.3335 7.41634C15.3335 8.66634 14.7102 9.49801 13.4043 9.49801H9.91683C9.91683 9.49801 10.2502 11.9997 10.2502 13.2497ZM1.5835 8.66634C1.25198 8.66634 0.934033 8.53465 0.699612 8.30022C0.465192 8.0658 0.333496 7.74786 0.333496 7.41634V1.58301C0.333496 1.25149 0.465192 0.933546 0.699612 0.699125C0.934033 0.464705 1.25198 0.333008 1.5835 0.333008C1.91502 0.333008 2.23296 0.464705 2.46738 0.699125C2.7018 0.933546 2.8335 1.25149 2.8335 1.58301V7.41634C2.8335 7.74786 2.7018 8.0658 2.46738 8.30022C2.23296 8.53465 1.91502 8.66634 1.5835 8.66634Z" fill="white"/>
</svg>
