<svg width="237" height="55" viewBox="0 0 237 55" fill="none" xmlns="http://www.w3.org/2000/svg">
<path opacity="0.1" d="M82.2991 55C84.0455 55 88.266 54.3979 90.7401 48.5775L99.0354 29.3097C100.2 26.5667 104.347 24.0244 107.476 24.0244L151.136 24.1583C154.12 24.1583 339 21.9506 339 19.1407C339 16.3977 154.193 14.1231 151.136 14.1231L107.476 13.9893H107.404C99.7631 13.9893 91.6133 19.0737 88.7753 25.6301L82.1536 41.0175L67.1637 6.09485C64.9079 0.876511 60.9057 0.140615 59.2321 0.006812C57.5584 -0.0600897 53.4835 0.274341 50.6456 5.22507L43.0779 18.4048C41.7681 20.6795 37.8387 22.8872 35.0008 22.8872H5.45752C2.47409 22.8872 0 25.1618 0 27.9048C0 30.6478 2.47409 32.9224 5.45752 32.9224H35.0008C41.9136 32.9224 49.4813 28.7077 52.6831 23.0879L58.3589 13.1864L73.6399 48.5775C76.3322 54.331 80.6255 55 82.2991 55Z" fill="url(#paint0_linear_273_10262)"/>
<defs>
<linearGradient id="paint0_linear_273_10262" x1="156.594" y1="19.6814" x2="-1.40047" y2="26.7485" gradientUnits="userSpaceOnUse">
<stop stop-color="white"/>
<stop offset="1" stop-color="white" stop-opacity="0.14"/>
</linearGradient>
</defs>
</svg>
