<svg width="34" height="26" viewBox="0 0 34 26" fill="none" xmlns="http://www.w3.org/2000/svg">
<rect width="34" height="26" rx="13" fill="white"/>
<path d="M18.1341 14.2773L15.8008 11.944M18.1341 14.2773L15.2183 17.1931C14.8341 17.5773 14.3677 17.8807 13.8323 17.973C13.2917 18.0663 12.6207 18.0973 12.3008 17.7773C11.9808 17.4574 12.0118 16.7864 12.1051 16.2458C12.1974 15.7104 12.5008 15.244 12.885 14.8597L15.8008 11.944M18.1341 14.2773C18.1341 14.2773 19.8841 12.5273 18.7174 11.3607C17.5507 10.194 15.8008 11.944 15.8008 11.944M12.0415 13.0013C12.0415 9.20964 13.2082 8.04297 16.9998 8.04297C20.7915 8.04297 21.9582 9.20964 21.9582 13.0013C21.9582 16.793 20.7915 17.9596 16.9998 17.9596" stroke="#325D7B" stroke-width="1.5" stroke-linecap="round" stroke-linejoin="round"/>
</svg>
