<svg width="18" height="14" viewBox="0 0 18 14" fill="none" xmlns="http://www.w3.org/2000/svg">
<path fill-rule="evenodd" clip-rule="evenodd" d="M7.33329 0.332031H10.6666C13.8093 0.332031 15.3807 0.332031 16.357 1.30834C17.3333 2.28466 17.3333 3.856 17.3333 6.9987C17.3333 10.1414 17.3333 11.7128 16.357 12.689C15.3807 13.6654 13.8093 13.6654 10.6666 13.6654H7.33329C4.19059 13.6654 2.61925 13.6654 1.64293 12.689C0.666626 11.7128 0.666626 10.1414 0.666626 6.9987C0.666626 3.856 0.666626 2.28466 1.64293 1.30834C2.61925 0.332031 4.19059 0.332031 7.33329 0.332031ZM10.0416 4.4987C10.0416 4.15352 10.3215 3.8737 10.6666 3.8737H14.8333C15.1785 3.8737 15.4583 4.15352 15.4583 4.4987C15.4583 4.84387 15.1785 5.1237 14.8333 5.1237H10.6666C10.3215 5.1237 10.0416 4.84387 10.0416 4.4987ZM10.875 6.9987C10.875 6.65353 11.1548 6.3737 11.5 6.3737H14.8333C15.1785 6.3737 15.4583 6.65353 15.4583 6.9987C15.4583 7.34386 15.1785 7.6237 14.8333 7.6237H11.5C11.1548 7.6237 10.875 7.34386 10.875 6.9987ZM11.7083 9.4987C11.7083 9.15353 11.9881 8.8737 12.3333 8.8737H14.8333C15.1785 8.8737 15.4583 9.15353 15.4583 9.4987C15.4583 9.84387 15.1785 10.1237 14.8333 10.1237H12.3333C11.9881 10.1237 11.7083 9.84387 11.7083 9.4987ZM8.16663 4.4987C8.16663 5.4192 7.42046 6.16536 6.49996 6.16536C5.57948 6.16536 4.83329 5.4192 4.83329 4.4987C4.83329 3.57822 5.57948 2.83203 6.49996 2.83203C7.42046 2.83203 8.16663 3.57822 8.16663 4.4987ZM6.49996 11.1654C9.83329 11.1654 9.83329 10.4192 9.83329 9.4987C9.83329 8.5782 8.34088 7.83203 6.49996 7.83203C4.65901 7.83203 3.16663 8.5782 3.16663 9.4987C3.16663 10.4192 3.16663 11.1654 6.49996 11.1654Z" fill="#325D7B"/>
</svg>
