<svg width="58" height="58" viewBox="0 0 58 58" fill="none" xmlns="http://www.w3.org/2000/svg">
<path d="M49.1645 15.6667C49.7744 12.1873 47.0968 9 43.5645 9H14.4343C10.9019 9 8.22457 12.1873 8.83423 15.6667" stroke="#325D7B" stroke-width="3.5"/>
<path d="M43.6664 9.00065C43.7421 8.30977 43.78 7.96425 43.7805 7.67892C43.7867 4.94924 41.7304 2.65569 39.0163 2.36444C38.7325 2.33398 38.3851 2.33398 37.6901 2.33398H20.3093C19.6143 2.33398 19.2667 2.33398 18.983 2.36444C16.2689 2.65569 14.2128 4.94924 14.2188 7.67889C14.2194 7.96425 14.2572 8.30972 14.3329 9.00065" stroke="#325D7B" stroke-width="3.5"/>
<path d="M35.8832 33.3097C37.3722 34.2329 37.3722 36.6225 35.8832 37.5457L26.8922 43.1193C25.445 44.0163 23.6666 42.8489 23.6666 41.0014V29.8539C23.6666 28.0067 25.445 26.839 26.8922 27.7361L35.8832 33.3097Z" stroke="#325D7B" stroke-width="3.5"/>
<path d="M3.35601 33.7826C2.16659 25.3464 1.5719 21.1284 4.0995 18.3982C6.6271 15.668 11.1269 15.668 20.1264 15.668H37.8736C46.873 15.668 51.3728 15.668 53.9005 18.3982C56.428 21.1284 55.8333 25.3464 54.644 33.7826L53.516 41.7826C52.5832 48.3984 52.117 51.7061 49.7245 53.6872C47.332 55.668 43.8032 55.668 36.7456 55.668H21.2543C14.1968 55.668 10.6681 55.668 8.27555 53.6872C5.88305 51.7061 5.41667 48.3984 4.48393 41.7826L3.35601 33.7826Z" stroke="#325D7B" stroke-width="3.5"/>
</svg>
