<svg width="16" height="16" viewBox="0 0 16 16" fill="none" xmlns="http://www.w3.org/2000/svg">
<path d="M8.00037 0C3.58213 0 0.000366211 3.58176 0.000366211 8C0.000366211 11.7517 2.58341 14.8998 6.06789 15.7645V10.4448H4.41829V8H6.06789V6.94656C6.06789 4.22368 7.30021 2.9616 9.97349 2.9616C10.4804 2.9616 11.3549 3.06112 11.7127 3.16032V5.37632C11.5239 5.35648 11.1959 5.34656 10.7885 5.34656C9.47685 5.34656 8.96997 5.84352 8.96997 7.13536V8H11.5831L11.1341 10.4448H8.96997V15.9414C12.9312 15.463 16.0007 12.0902 16.0007 8C16.0004 3.58176 12.4186 0 8.00037 0Z" fill="white"/>
</svg>
