<svg width="16" height="16" viewBox="0 0 16 16" fill="none" xmlns="http://www.w3.org/2000/svg">
<path d="M11.1425 0.5H4.8575C2.1275 0.5 0.5 2.1275 0.5 4.8575V11.135C0.5 13.8725 2.1275 15.5 4.8575 15.5H11.135C13.865 15.5 15.4925 13.8725 15.4925 11.1425V4.8575C15.5 2.1275 13.8725 0.5 11.1425 0.5ZM4.7525 3.125C4.7525 2.8175 5.0075 2.5625 5.315 2.5625C5.6225 2.5625 5.8775 2.8175 5.8775 3.125V6.05C5.8775 6.3575 5.6225 6.6125 5.315 6.6125C5.0075 6.6125 4.7525 6.3575 4.7525 6.05V3.125ZM6.14212 11.3235C5.98954 11.3912 5.8775 11.5349 5.8775 11.7018V12.875C5.8775 13.1825 5.6225 13.4375 5.315 13.4375C5.0075 13.4375 4.7525 13.1825 4.7525 12.875V11.7018C4.7525 11.5349 4.64045 11.3912 4.48792 11.3233C3.77206 11.0048 3.275 10.2935 3.275 9.4625C3.275 8.3375 4.19 7.415 5.315 7.415C6.44 7.415 7.3625 8.33 7.3625 9.4625C7.3625 10.2936 6.85933 11.0049 6.14212 11.3235ZM11.2475 12.875C11.2475 13.1825 10.9925 13.4375 10.685 13.4375C10.3775 13.4375 10.1225 13.1825 10.1225 12.875V9.95C10.1225 9.6425 10.3775 9.3875 10.685 9.3875C10.9925 9.3875 11.2475 9.6425 11.2475 9.95V12.875ZM10.685 8.5775C9.56 8.5775 8.6375 7.6625 8.6375 6.53C8.6375 5.69889 9.14067 4.98756 9.8579 4.66905C10.0104 4.60129 10.1225 4.45761 10.1225 4.29066V3.125C10.1225 2.8175 10.3775 2.5625 10.685 2.5625C10.9925 2.5625 11.2475 2.8175 11.2475 3.125V4.29816C11.2475 4.46511 11.3596 4.60876 11.5121 4.67664C12.2279 4.9952 12.725 5.70646 12.725 6.5375C12.725 7.6625 11.81 8.5775 10.685 8.5775Z" fill="white"/>
</svg>
