<svg width="54" height="58" viewBox="0 0 54 58" fill="none" xmlns="http://www.w3.org/2000/svg">
<path d="M37 2.33301C37 1.22845 36.1045 0.333008 35 0.333008C33.8955 0.333008 33 1.22845 33 2.33301V55.6663C33 56.7709 33.8955 57.6663 35 57.6663C36.1045 57.6663 37 56.7709 37 55.6663V50.3181C44.0291 50.2445 47.9443 49.8071 50.5424 47.2087C53.6667 44.0847 53.6667 39.0562 53.6667 28.9997C53.6667 18.943 53.6667 13.9147 50.5424 10.7905C47.9443 8.19231 44.0291 7.7549 37 7.68125V2.33301Z" fill="#FD6721"/>
<path fill-rule="evenodd" clip-rule="evenodd" d="M3.4575 47.2084C6.58171 50.3327 11.61 50.3327 21.6666 50.3327H29.6666V28.9993V7.66602H21.6666C11.61 7.66602 6.58171 7.66602 3.4575 10.7902C0.333313 13.9144 0.333313 18.9427 0.333313 28.9993C0.333313 39.0559 0.333313 44.0844 3.4575 47.2084ZM29.6666 28.9993C29.6666 27.5266 28.4728 26.3327 27 26.3327C25.5272 26.3327 24.3333 27.5266 24.3333 28.9993C24.3333 30.4721 25.5272 31.666 27 31.666C28.4728 31.666 29.6666 30.4721 29.6666 28.9993ZM19 28.9993C19 30.4721 17.8061 31.666 16.3333 31.666C14.8606 31.666 13.6666 30.4721 13.6666 28.9993C13.6666 27.5266 14.8606 26.3327 16.3333 26.3327C17.8061 26.3327 19 27.5266 19 28.9993Z" fill="#FD6721"/>
</svg>
