<svg width="18" height="18" viewBox="0 0 18 18" fill="none" xmlns="http://www.w3.org/2000/svg">
<path fill-rule="evenodd" clip-rule="evenodd" d="M17.64 9.20421C17.64 8.56602 17.5827 7.95238 17.4764 7.36328H9V10.8447H13.8436C13.635 11.9697 13.0009 12.9229 12.0477 13.5611V15.8193H14.9564C16.6582 14.2524 17.64 11.9451 17.64 9.20421Z" fill="#4285F4"/>
<path fill-rule="evenodd" clip-rule="evenodd" d="M8.99982 18C11.4298 18 13.4671 17.1941 14.9562 15.8196L12.0475 13.5614C11.2416 14.1014 10.2107 14.4205 8.99982 14.4205C6.65573 14.4205 4.67164 12.8373 3.96391 10.71H0.957092V13.0418C2.438 15.9832 5.48164 18 8.99982 18Z" fill="#34A853"/>
<path fill-rule="evenodd" clip-rule="evenodd" d="M3.96409 10.7104C3.78409 10.1704 3.68182 9.59354 3.68182 9.00036C3.68182 8.40717 3.78409 7.83034 3.96409 7.29034V4.9585H0.957273C0.347727 6.17351 0 7.54807 0 9.00036C0 10.4526 0.347727 11.8272 0.957273 13.0422L3.96409 10.7104Z" fill="#FBBC05"/>
<path fill-rule="evenodd" clip-rule="evenodd" d="M8.99982 3.57958C10.3212 3.57958 11.5075 4.03368 12.4403 4.9255L15.0216 2.34411C13.463 0.891827 11.4257 0 8.99982 0C5.48164 0 2.438 2.01684 0.957092 4.95823L3.96391 7.29007C4.67164 5.16278 6.65573 3.57958 8.99982 3.57958Z" fill="#EA4335"/>
</svg>
