<svg width="12" height="11" viewBox="0 0 12 11" fill="none" xmlns="http://www.w3.org/2000/svg">
<path fill-rule="evenodd" clip-rule="evenodd" d="M4.22703 9.77341C2.51068 8.45799 0.166016 6.28502 0.166016 4.23048C0.166016 0.798196 3.37444 -0.483248 5.99935 2.16815C8.62423 -0.483248 11.8327 0.798196 11.8327 4.23046C11.8327 6.28508 9.48803 8.45799 7.77169 9.77341C6.99469 10.3689 6.60619 10.6667 5.99935 10.6667C5.39251 10.6667 5.00401 10.3689 4.22703 9.77341ZM8.62435 2.64583C8.86597 2.64583 9.06185 2.84171 9.06185 3.08333V3.81251H9.79102C10.0326 3.81251 10.2285 4.00838 10.2285 4.25001C10.2285 4.49164 10.0326 4.68751 9.79102 4.68751H9.06185V5.41667C9.06185 5.65828 8.86597 5.85417 8.62435 5.85417C8.38273 5.85417 8.18685 5.65828 8.18685 5.41667V4.68751H7.45768C7.21607 4.68751 7.02018 4.49164 7.02018 4.25001C7.02018 4.00838 7.21607 3.81251 7.45768 3.81251H8.18685V3.08333C8.18685 2.84171 8.38273 2.64583 8.62435 2.64583Z" fill="#325D7B"/>
</svg>
