<svg width="23" height="23" viewBox="0 0 23 23" fill="none" xmlns="http://www.w3.org/2000/svg">
<path d="M10.938 17.8713C10.938 18.2967 11.2829 18.6416 11.7083 18.6416C12.1338 18.6416 12.4787 18.2967 12.4787 17.8713V14.7899C12.4787 14.3644 12.1338 14.0195 11.7083 14.0195C11.2829 14.0195 10.938 14.3644 10.938 14.7899V17.8713Z" fill="#FD6721"/>
<path fill-rule="evenodd" clip-rule="evenodd" d="M11.7084 0.666992C10.9636 0.666992 10.2841 0.871504 9.54037 1.21866C8.82039 1.55472 7.9878 2.0507 6.94434 2.67229L5.44924 3.56292C4.29977 4.24764 3.38381 4.79326 2.69029 5.31501C1.97437 5.85363 1.43703 6.40825 1.08686 7.13866C0.736524 7.86944 0.641566 8.63425 0.67202 9.52687C0.701509 10.3908 0.852652 11.4413 1.04217 12.7583L1.34246 14.8452C1.58629 16.5399 1.77977 17.8846 2.06885 18.9317C2.36683 20.0109 2.78963 20.8675 3.55257 21.5244C4.3149 22.1809 5.22699 22.4744 6.34297 22.6144C7.4268 22.7503 8.79419 22.7503 10.5192 22.7503H12.8975C14.6225 22.7503 15.99 22.7503 17.0738 22.6144C18.1898 22.4744 19.1019 22.1809 19.8642 21.5244C20.627 20.8675 21.0499 20.0109 21.3479 18.9317C21.6369 17.8847 21.8304 16.5399 22.0743 14.8452L22.3745 12.7583C22.5641 11.4412 22.7152 10.3908 22.7447 9.52687C22.7752 8.63425 22.6802 7.86944 22.3298 7.13866C21.9797 6.40825 21.4424 5.85363 20.7265 5.31501C20.033 4.79326 19.117 4.24764 17.9675 3.56292L16.4724 2.67229C15.4289 2.0507 14.5963 1.55472 13.8763 1.21866C13.1326 0.871504 12.4531 0.666992 11.7084 0.666992ZM7.698 4.01668C8.7842 3.36964 9.55059 2.91416 10.192 2.61477C10.8176 2.32276 11.2675 2.20769 11.7084 2.20769C12.1493 2.20769 12.5991 2.32276 13.2247 2.61477C13.8662 2.91416 14.6325 3.36964 15.7187 4.01668L17.1412 4.86401C18.3371 5.57641 19.1809 6.08033 19.8002 6.54619C20.4046 7.00092 20.7356 7.37718 20.9405 7.80471C21.1453 8.23187 21.2305 8.72317 21.2049 9.47433C21.1786 10.2445 21.0405 11.2118 20.8433 12.5829L20.5569 14.5727C20.3037 16.3324 20.1227 17.5799 19.8628 18.5216C19.6086 19.4418 19.3029 19.9746 18.8588 20.3569C18.4142 20.7398 17.8379 20.9659 16.882 21.0858C15.9052 21.2082 14.6344 21.2096 12.8445 21.2096H10.5722C8.7823 21.2096 7.51155 21.2082 6.53469 21.0858C5.57891 20.9659 5.00251 20.7398 4.55789 20.3569C4.11389 19.9746 3.80805 19.4418 3.55398 18.5216C3.294 17.5799 3.11301 16.3324 2.85982 14.5727L2.57349 12.5827C2.37622 11.2118 2.23811 10.2445 2.21182 9.47433C2.1862 8.72317 2.27137 8.23187 2.47616 7.80471C2.68111 7.37718 3.01211 7.00092 3.61655 6.54619C4.23579 6.08033 5.07969 5.57641 6.27559 4.86401L7.698 4.01668Z" fill="#FD6721"/>
</svg>
