<svg width="16" height="16" viewBox="0 0 16 16" fill="none" xmlns="http://www.w3.org/2000/svg">
<g clip-path="url(#clip0_939_401)">
<path d="M8.00037 1.44062C10.1379 1.44062 10.391 1.45 11.2316 1.4875C12.0129 1.52187 12.4347 1.65313 12.716 1.7625C13.0879 1.90625 13.3566 2.08125 13.6347 2.35938C13.916 2.64062 14.0879 2.90625 14.2316 3.27813C14.341 3.55938 14.4722 3.98438 14.5066 4.7625C14.5441 5.60625 14.5535 5.85938 14.5535 7.99375C14.5535 10.1313 14.5441 10.3844 14.5066 11.225C14.4722 12.0063 14.341 12.4281 14.2316 12.7094C14.0879 13.0813 13.9129 13.35 13.6347 13.6281C13.3535 13.9094 13.0879 14.0813 12.716 14.225C12.4347 14.3344 12.0097 14.4656 11.2316 14.5C10.3879 14.5375 10.1347 14.5469 8.00037 14.5469C5.86287 14.5469 5.60974 14.5375 4.76912 14.5C3.98787 14.4656 3.56599 14.3344 3.28474 14.225C2.91287 14.0813 2.64412 13.9063 2.36599 13.6281C2.08474 13.3469 1.91287 13.0813 1.76912 12.7094C1.65974 12.4281 1.52849 12.0031 1.49412 11.225C1.45662 10.3813 1.44724 10.1281 1.44724 7.99375C1.44724 5.85625 1.45662 5.60313 1.49412 4.7625C1.52849 3.98125 1.65974 3.55938 1.76912 3.27813C1.91287 2.90625 2.08787 2.6375 2.36599 2.35938C2.64724 2.07812 2.91287 1.90625 3.28474 1.7625C3.56599 1.65313 3.99099 1.52187 4.76912 1.4875C5.60974 1.45 5.86287 1.44062 8.00037 1.44062ZM8.00037 0C5.82849 0 5.55662 0.009375 4.70349 0.046875C3.85349 0.084375 3.26912 0.221875 2.76287 0.41875C2.23474 0.625 1.78787 0.896875 1.34412 1.34375C0.897241 1.7875 0.625366 2.23438 0.419116 2.75938C0.222241 3.26875 0.0847412 3.85 0.0472412 4.7C0.00974121 5.55625 0.000366211 5.82812 0.000366211 8C0.000366211 10.1719 0.00974121 10.4438 0.0472412 11.2969C0.0847412 12.1469 0.222241 12.7313 0.419116 13.2375C0.625366 13.7656 0.897241 14.2125 1.34412 14.6562C1.78787 15.1 2.23474 15.375 2.75974 15.5781C3.26912 15.775 3.85037 15.9125 4.70037 15.95C5.55349 15.9875 5.82537 15.9969 7.99724 15.9969C10.1691 15.9969 10.441 15.9875 11.2941 15.95C12.1441 15.9125 12.7285 15.775 13.2347 15.5781C13.7597 15.375 14.2066 15.1 14.6504 14.6562C15.0941 14.2125 15.3691 13.7656 15.5722 13.2406C15.7691 12.7313 15.9066 12.15 15.9441 11.3C15.9816 10.4469 15.991 10.175 15.991 8.00313C15.991 5.83125 15.9816 5.55938 15.9441 4.70625C15.9066 3.85625 15.7691 3.27188 15.5722 2.76562C15.3754 2.23438 15.1035 1.7875 14.6566 1.34375C14.2129 0.9 13.766 0.625 13.241 0.421875C12.7316 0.225 12.1504 0.0875 11.3004 0.05C10.4441 0.009375 10.1722 0 8.00037 0Z" fill="white"/>
<path d="M8.00037 3.89062C5.73162 3.89062 3.89099 5.73125 3.89099 8C3.89099 10.2688 5.73162 12.1094 8.00037 12.1094C10.2691 12.1094 12.1097 10.2688 12.1097 8C12.1097 5.73125 10.2691 3.89062 8.00037 3.89062ZM8.00037 10.6656C6.52849 10.6656 5.33474 9.47188 5.33474 8C5.33474 6.52813 6.52849 5.33437 8.00037 5.33437C9.47224 5.33437 10.666 6.52813 10.666 8C10.666 9.47188 9.47224 10.6656 8.00037 10.6656Z" fill="white"/>
<path d="M13.2316 3.72891C13.2316 4.26016 12.8004 4.68828 12.2722 4.68828C11.741 4.68828 11.3129 4.25703 11.3129 3.72891C11.3129 3.19766 11.7441 2.76953 12.2722 2.76953C12.8004 2.76953 13.2316 3.20078 13.2316 3.72891Z" fill="white"/>
</g>
<defs>
<clipPath id="clip0_939_401">
<rect width="16" height="16" fill="white" transform="translate(0.000366211)"/>
</clipPath>
</defs>
</svg>
