<svg width="14" height="14" viewBox="0 0 14 14" fill="none" xmlns="http://www.w3.org/2000/svg">
<path fill-rule="evenodd" clip-rule="evenodd" d="M9.24337 1.16797H4.75668C3.79924 1.17326 2.88312 1.55868 2.20987 2.23944C1.53661 2.9202 1.16136 3.84054 1.16668 4.79797V9.20464C1.16136 10.1621 1.53661 11.0824 2.20987 11.7631C2.88312 12.4439 3.79924 12.8294 4.75668 12.8346H9.24337C10.2008 12.8294 11.1169 12.4439 11.7901 11.7631C12.4635 11.0824 12.8386 10.1621 12.8334 9.20464V4.79797C12.8386 3.84054 12.4635 2.9202 11.7901 2.23944C11.1169 1.55868 10.2008 1.17326 9.24337 1.16797Z" stroke="#325D7B" stroke-width="1.5" stroke-linecap="round" stroke-linejoin="round"/>
<path d="M3.66675 4.5013C3.32157 4.5013 3.04175 4.78113 3.04175 5.1263C3.04175 5.47147 3.32157 5.7513 3.66675 5.7513V4.5013ZM7.00006 5.7513C7.34523 5.7513 7.62506 5.47147 7.62506 5.1263C7.62506 4.78113 7.34523 4.5013 7.00006 4.5013V5.7513ZM6.37506 5.1263C6.37506 5.47147 6.6549 5.7513 7.00006 5.7513C7.34523 5.7513 7.62506 5.47147 7.62506 5.1263H6.37506ZM7.62506 3.66797C7.62506 3.32279 7.34523 3.04297 7.00006 3.04297C6.6549 3.04297 6.37506 3.32279 6.37506 3.66797H7.62506ZM7.00006 4.5013C6.6549 4.5013 6.37506 4.78113 6.37506 5.1263C6.37506 5.47147 6.6549 5.7513 7.00006 5.7513V4.5013ZM9.91673 5.7513C10.2619 5.7513 10.5417 5.47147 10.5417 5.1263C10.5417 4.78113 10.2619 4.5013 9.91673 4.5013V5.7513ZM9.91673 4.5013C9.57157 4.5013 9.29173 4.78113 9.29173 5.1263C9.29173 5.47147 9.57157 5.7513 9.91673 5.7513V4.5013ZM10.3334 5.7513C10.6786 5.7513 10.9584 5.47147 10.9584 5.1263C10.9584 4.78113 10.6786 4.5013 10.3334 4.5013V5.7513ZM10.4281 5.48555C10.6266 5.20315 10.5585 4.81333 10.2761 4.61489C9.99357 4.41647 9.60382 4.48457 9.40531 4.76701L10.4281 5.48555ZM6.39473 8.06655C6.13156 8.28997 6.0994 8.68439 6.32281 8.94747C6.54623 9.21064 6.94065 9.2428 7.20373 9.01939L6.39473 8.06655ZM4.74976 9.41822C4.47375 9.62547 4.41804 10.0173 4.62532 10.2933C4.83261 10.5693 5.2244 10.6251 5.5004 10.4177L4.74976 9.41822ZM7.21406 9.00714C7.47223 8.77805 7.49581 8.38305 7.26673 8.12489C7.03773 7.86664 6.64265 7.84305 6.38448 8.07214L7.21406 9.00714ZM6.30756 8.92555C6.52073 9.19705 6.91357 9.24439 7.18515 9.0313C7.45665 8.81814 7.50398 8.4253 7.2909 8.15372L6.30756 8.92555ZM6.32165 6.54022C6.18206 6.22447 5.81298 6.0818 5.49731 6.22139C5.18161 6.36097 5.03887 6.73005 5.17848 7.04572L6.32165 6.54022ZM7.30073 8.16997C7.09473 7.89297 6.70323 7.83547 6.42623 8.04147C6.14931 8.24747 6.09173 8.63897 6.29773 8.91597L7.30073 8.16997ZM8.5794 10.8853C8.88348 11.0486 9.2624 10.9345 9.42573 10.6303C9.58898 10.3262 9.4749 9.9473 9.17081 9.78397L8.5794 10.8853ZM3.66675 5.7513H7.00006V4.5013H3.66675V5.7513ZM7.62506 5.1263V3.66797H6.37506V5.1263H7.62506ZM7.00006 5.7513H9.91673V4.5013H7.00006V5.7513ZM9.91673 5.7513H10.3334V4.5013H9.91673V5.7513ZM9.40531 4.76701C8.54598 5.99022 7.53431 7.09897 6.39473 8.06655L7.20373 9.01939C8.42423 7.98314 9.50773 6.79564 10.4281 5.48555L9.40531 4.76701ZM5.5004 10.4177C5.92606 10.0981 6.54423 9.60139 7.21406 9.00714L6.38448 8.07214C5.73923 8.64455 5.14741 9.11955 4.74976 9.41822L5.5004 10.4177ZM7.2909 8.15372C6.90198 7.6583 6.5764 7.11622 6.32165 6.54022L5.17848 7.04572C5.47523 7.7168 5.85456 8.3483 6.30756 8.92555L7.2909 8.15372ZM6.29773 8.91597C6.90456 9.73189 7.68356 10.4042 8.5794 10.8853L9.17081 9.78397C8.43656 9.38972 7.79815 8.83864 7.30073 8.16997L6.29773 8.91597Z" fill="#325D7B"/>
</svg>
