<svg width="16" height="16" viewBox="0 0 16 16" fill="none" xmlns="http://www.w3.org/2000/svg">
<path d="M14.816 0H1.18162C0.528491 0 0.000366211 0.515625 0.000366211 1.15313V14.8438C0.000366211 15.4813 0.528491 16 1.18162 16H14.816C15.4691 16 16.0004 15.4813 16.0004 14.8469V1.15313C16.0004 0.515625 15.4691 0 14.816 0ZM4.74724 13.6344H2.37224V5.99687H4.74724V13.6344ZM3.55974 4.95625C2.79724 4.95625 2.18162 4.34062 2.18162 3.58125C2.18162 2.82188 2.79724 2.20625 3.55974 2.20625C4.31912 2.20625 4.93474 2.82188 4.93474 3.58125C4.93474 4.3375 4.31912 4.95625 3.55974 4.95625ZM13.6347 13.6344H11.2629V9.92188C11.2629 9.0375 11.2472 7.89687 10.0285 7.89687C8.79412 7.89687 8.60662 8.8625 8.60662 9.85938V13.6344H6.23787V5.99687H8.51287V7.04063H8.54412C8.85974 6.44063 9.63474 5.80625 10.7879 5.80625C13.191 5.80625 13.6347 7.3875 13.6347 9.44375V13.6344Z" fill="white"/>
</svg>
