<svg width="257" height="257" viewBox="0 0 257 257" fill="none" xmlns="http://www.w3.org/2000/svg">
<path fill-rule="evenodd" clip-rule="evenodd" d="M14.5076 192.814V177.099H23.6054C28.0387 177.099 31.2512 180.234 31.2512 184.796C31.2512 189.345 28.0387 192.814 23.6054 192.814H14.5076ZM23.6054 190.064C26.4453 190.064 28.5141 187.88 28.5141 184.924C28.5141 181.956 26.4453 179.836 23.6054 179.836H17.2318V190.064H23.6054Z" fill="#FD6721"/>
<path d="M48.0975 192.814L44.114 188.445H38.2416V186.017H44.7822C46.7611 186.017 47.7891 184.899 47.7891 182.868C47.7891 180.838 46.6712 179.836 44.7822 179.836H36.2241V192.814H33.4999V177.099H44.7822C48.3802 177.099 50.5005 179.322 50.5005 182.817C50.5005 185.413 49.2797 187.25 47.2494 188.034L51.9911 192.814H48.0975Z" fill="#FD6721"/>
<path d="M54.8567 192.981C54.0343 192.981 53.4175 192.339 53.4175 191.516C53.4175 190.694 54.0343 190.039 54.8567 190.039C55.7048 190.039 56.3473 190.694 56.3473 191.516C56.3473 192.339 55.7048 192.981 54.8567 192.981Z" fill="#FD6721"/>
<path d="M61.6286 181.314V192.814H59.0072V178.538C59.0072 177.523 59.5469 176.906 60.4207 176.906C60.8319 176.906 61.1788 177.047 61.59 177.459L72.6796 188.471V176.97H75.2882V191.362C75.2882 192.403 74.7227 193.007 73.926 193.007C73.4763 193.007 73.0651 192.814 72.6796 192.416L61.6286 181.314Z" fill="#FD6721"/>
<path d="M94.3319 192.814L91.9803 188.856H84.5402L85.838 186.633H90.6568L87.1616 180.748L80.0298 192.814H76.8944L85.928 177.767C86.2492 177.227 86.6604 176.88 87.2644 176.88C87.8683 176.88 88.2538 177.227 88.5879 177.767L97.6472 192.814H94.3319Z" fill="#FD6721"/>
<path fill-rule="evenodd" clip-rule="evenodd" d="M99.3305 192.814V177.099H108.428C112.862 177.099 116.087 180.234 116.087 184.796C116.087 189.345 112.862 192.814 108.428 192.814H99.3305ZM108.428 190.064C111.268 190.064 113.337 187.88 113.337 184.924C113.337 181.956 111.268 179.836 108.428 179.836H102.055V190.064H108.428Z" fill="#FD6721"/>
<path d="M132.612 192.814L130.26 188.856H122.82L124.118 186.633H128.937L125.442 180.748L118.31 192.814H115.175L124.208 177.767C124.529 177.227 124.941 176.88 125.545 176.88C126.148 176.88 126.547 177.227 126.868 177.767L135.927 192.814H132.612Z" fill="#FD6721"/>
<path d="M143.971 192.814V190.064H155.742C157.22 190.064 158.042 189.242 158.042 188.008C158.042 186.672 157.22 185.978 155.742 185.978H148.533C145.565 185.978 143.727 184.102 143.727 181.506C143.727 178.975 145.436 177.099 148.572 177.099H159.854V179.836H148.572C147.312 179.836 146.58 180.568 146.58 181.763C146.58 182.958 147.338 183.665 148.546 183.665H155.742C158.929 183.665 160.638 185.156 160.638 188.201C160.638 190.848 159.032 192.814 155.742 192.814H143.971Z" fill="#FD6721"/>
<path d="M178.384 192.814L176.019 188.856H168.592L169.89 186.633H174.709L171.201 180.748L164.069 192.814H160.933L169.967 177.767C170.301 177.227 170.699 176.88 171.316 176.88C171.92 176.88 172.306 177.227 172.627 177.767L181.686 192.814H178.384Z" fill="#FD6721"/>
<path d="M183.37 192.814V177.099H186.119V190.064H196.695V192.814H183.37Z" fill="#FD6721"/>
<path d="M218.219 192.814L215.212 181.763L210.766 191.992C210.457 192.66 210.02 193.02 209.352 193.02C208.71 193.02 208.234 192.66 207.952 191.992L203.518 181.763L200.511 192.814H197.813L201.861 178.024C202.053 177.266 202.477 176.906 203.223 176.906C203.801 176.906 204.341 177.227 204.598 177.831L209.442 188.946L214.287 177.831C214.544 177.227 215.019 176.906 215.597 176.906C216.278 176.906 216.702 177.266 216.921 178.024L220.943 192.814H218.219Z" fill="#FD6721"/>
<path d="M239.138 192.814L236.787 188.856H229.347L230.645 186.633H235.463L231.968 180.748L224.836 192.814H221.701L230.735 177.767C231.056 177.227 231.467 176.88 232.071 176.88C232.675 176.88 233.073 177.227 233.395 177.767L242.454 192.814H239.138Z" fill="#FD6721"/>
<path d="M65.8048 215.572L63.5304 207.219L60.1637 214.942C59.9324 215.456 59.6111 215.726 59.11 215.726C58.6088 215.726 58.249 215.456 58.0434 214.942L54.6896 207.219L52.4151 215.572H50.3848L53.4303 204.392C53.5845 203.814 53.9057 203.544 54.4583 203.544C54.908 203.544 55.3192 203.788 55.512 204.238L59.1742 212.642L62.8365 204.238C63.0292 203.788 63.389 203.544 63.8259 203.544C64.3399 203.544 64.6612 203.814 64.8282 204.392L67.8608 215.572H65.8048Z" fill="#325D7B"/>
<path fill-rule="evenodd" clip-rule="evenodd" d="M69.2358 215.572V203.685H79.8499V205.767H71.2918V213.49H79.8627V215.572H69.2358ZM72.8081 210.406V208.658H79.4001V210.406H72.8081Z" fill="#325D7B"/>
<path fill-rule="evenodd" clip-rule="evenodd" d="M81.6489 215.572V203.685H88.5237C91.8775 203.685 94.3062 206.063 94.3062 209.506C94.3062 212.95 91.8775 215.572 88.5237 215.572H81.6489ZM88.5237 213.49C90.6696 213.49 92.2373 211.845 92.2373 209.609C92.2373 207.36 90.6696 205.767 88.5237 205.767H83.7049V213.49H88.5237Z" fill="#325D7B"/>
<path d="M96.3621 215.7C95.7453 215.7 95.2699 215.212 95.2699 214.582C95.2699 213.965 95.7453 213.477 96.3621 213.477C97.0046 213.477 97.4929 213.965 97.4929 214.582C97.4929 215.212 97.0046 215.7 96.3621 215.7Z" fill="#325D7B"/>
<path fill-rule="evenodd" clip-rule="evenodd" d="M104.355 215.572V203.685H114.969V205.767H106.424V213.49H114.982V215.572H104.355ZM107.927 210.406V208.658H114.519V210.406H107.927Z" fill="#325D7B"/>
<path fill-rule="evenodd" clip-rule="evenodd" d="M116.768 215.572V203.685H123.643C126.997 203.685 129.425 206.063 129.425 209.506C129.425 212.95 126.997 215.572 123.643 215.572H116.768ZM123.643 213.49C125.789 213.49 127.356 211.845 127.356 209.609C127.356 207.36 125.789 205.767 123.643 205.767H118.824V213.49H123.643Z" fill="#325D7B"/>
<path d="M141.748 203.685H143.779V210.316C143.779 214.004 141.967 215.726 137.354 215.726C132.779 215.726 130.954 214.004 130.954 210.316V203.685H133.087V210.316C133.087 212.706 134.154 213.683 137.418 213.683C140.695 213.683 141.748 212.706 141.748 210.316V203.685Z" fill="#325D7B"/>
<path d="M146.297 215.7C145.68 215.7 145.205 215.212 145.205 214.582C145.205 213.965 145.68 213.477 146.297 213.477C146.927 213.477 147.428 213.965 147.428 214.582C147.428 215.212 146.927 215.7 146.297 215.7Z" fill="#325D7B"/>
<path d="M157.862 212.269V210.252H162.642C164.094 210.252 164.955 209.339 164.955 208.003C164.955 206.628 164.094 205.767 162.642 205.767H156.346V215.572H154.29V203.685H162.642C165.379 203.685 166.986 205.343 166.986 207.939C166.986 210.496 165.379 212.269 162.642 212.269H157.862Z" fill="#325D7B"/>
<path d="M168.464 215.572V203.685H170.532V213.49H178.525V215.572H168.464Z" fill="#325D7B"/>
<path d="M192.403 215.572L190.617 212.578H185.001L185.978 210.894H189.615L186.967 206.448L181.583 215.572H179.206L186.042 204.199C186.286 203.788 186.595 203.518 187.057 203.518C187.507 203.518 187.803 203.788 188.047 204.199L194.896 215.572H192.403Z" fill="#325D7B"/>
<path d="M197.877 215.572V205.767H193.367V203.685H204.456V205.767H199.946V215.572H197.877Z" fill="#325D7B"/>
<path d="M213.271 144.293C213.271 144.293 169.723 133.704 130.684 166.151C130.684 166.151 126.007 169.594 122.191 165.264C122.191 165.264 101.194 146.721 69.6213 143.419C69.6213 143.419 59.2128 141.864 40.2976 144.113C40.2976 144.113 30.583 141.864 35.7872 131.97C35.7872 131.97 41.9167 125.249 77.7425 130.299C80.9678 130.762 91.492 132.869 96.4264 134.694C104.663 137.726 117.423 143.329 126.868 151.579C126.868 151.579 157.926 123.81 208.581 129.361C208.581 129.361 221.778 129.708 220.043 137.868C220.043 137.868 219.863 143.599 213.271 144.293Z" fill="#325D7B"/>
<path d="M167.114 127.755C182.084 125.056 194.279 125.917 199.612 126.56C201.488 126.778 203.454 126.74 203.775 126.508C207.373 123.977 204.418 120.906 204.418 120.906C202.696 119.916 196.978 118.477 184.693 118.824C183.318 118.862 181.827 118.914 180.221 118.965C152.247 119.801 127.125 138.947 127.125 138.947C126.007 137.983 120.7 134.642 116.742 132.188C114.249 130.633 107.362 127.099 104.907 126.123C76.7145 114.918 50.6161 120.212 50.6161 120.212C47.4422 123.129 49.0227 125.172 50.3463 126.598C51.4899 127.845 54.484 126.662 56.5143 126.393C60.0223 125.93 64.2757 125.93 64.2757 125.93C89.7444 125.442 105.46 133.203 114.249 138.819C115.946 139.898 117.436 140.875 118.683 141.697C121.278 143.419 123.656 145.475 124.08 145.809C127.652 148.752 129.014 146.516 129.014 146.516C129.014 146.516 153.866 130.145 167.114 127.755Z" fill="#9CD8D3"/>
<path d="M58.5189 116.691C58.5189 116.691 97.1717 109.662 124.491 134.128C124.491 134.128 127.099 137.251 129.567 134.128C129.567 134.128 157.541 109.79 195.281 116.948C195.281 116.948 197.479 117.012 197.954 115.804C198.198 115.187 198.198 114.237 196.836 112.784C196.836 112.784 158.839 105.113 127.228 130.35C127.228 130.35 99.3819 106.154 57.7351 112.656C57.7351 112.656 53.97 115.393 58.5189 116.691Z" fill="#FDA36C"/>
<path d="M64.507 110.446C64.507 110.446 97.9941 103.443 126.573 127.228C126.573 127.228 128.256 127.819 129.438 126.059C129.489 125.981 129.528 125.969 129.734 125.802C132.445 123.386 154.059 105.486 189.165 110.703C189.165 110.703 190.411 110.51 190.18 109.649C190.09 109.302 190.18 108.84 189.165 108.236C189.165 108.236 155.845 100.551 127.228 124.632C127.228 124.632 102.89 102.376 64.507 108.364C64.507 108.364 62.1426 109.199 64.507 110.446Z" fill="#FD6721"/>
<path d="M157.695 77.0101L148.893 85.7353C147.441 87.2002 145.077 87.2002 143.612 85.7353C142.16 84.2832 142.16 81.9188 143.612 80.4539L152.414 71.7288" fill="#325D7B"/>
<path d="M135.092 94.1905C134.861 93.9592 134.964 93.458 135.323 93.0982L144.832 83.6278C145.192 83.268 145.68 83.1652 145.925 83.4093C146.156 83.6406 146.053 84.1289 145.693 84.5016L136.184 93.9592C135.825 94.3318 135.336 94.4346 135.092 94.1905Z" fill="#325D7B"/>
<path d="M169.633 53.0577L176.43 59.8553L184.873 51.4257L178.062 44.6281L169.633 53.0577Z" fill="#9CD8D3"/>
<path d="M187.88 53.4946C187.469 53.9058 186.813 53.9058 186.402 53.4946L175.852 42.8933C175.441 42.495 175.441 41.8268 175.852 41.4156C176.263 41.0172 176.919 41.0172 177.33 41.4284L187.88 52.0168C188.291 52.428 188.291 53.0962 187.88 53.4946Z" fill="#9CD8D3"/>
<mask id="mask0_266_1846" style="mask-type:luminance" maskUnits="userSpaceOnUse" x="142" y="71" width="16" height="16">
<path d="M157.693 77.0152L148.897 85.7378C147.438 87.1963 145.074 87.1963 143.615 85.7378C142.157 84.2793 142.157 81.9149 143.615 80.4565L152.411 71.7339" fill="white"/>
</mask>
<g mask="url(#mask0_266_1846)">
<path opacity="0.4" d="M156.307 74.9927L147.518 83.7178C146.053 85.1827 143.689 85.1827 142.237 83.7178C140.772 82.2658 140.772 79.9014 142.237 78.4365L151.026 69.7113" fill="#447A99"/>
</g>
<path d="M178.075 62.2454L160.06 80.1197C157.066 83.1138 152.221 83.1138 149.24 80.1197C146.246 77.1385 146.246 72.2941 149.24 69.3L167.256 51.4257" fill="#9CD8D3"/>
<path d="M169.016 68.5933L158.762 78.732C156.462 81.0322 152.748 81.0322 150.448 78.732C148.16 76.4447 148.16 72.7182 150.448 70.418L152.478 68.4135" fill="#FD6721"/>
<path d="M181.519 64.2371C180.967 64.7896 180.08 64.7896 179.527 64.2371L165.212 49.8708C164.66 49.3182 164.66 48.4187 165.212 47.8662C165.765 47.3265 166.665 47.3265 167.217 47.879L181.532 62.2453C182.084 62.7979 182.085 63.6845 181.519 64.2371Z" fill="#FD6721"/>
<path d="M139.782 101.836C139.782 101.819 139.778 101.806 139.769 101.798C139.769 101.798 139.769 101.793 139.769 101.785C139.435 101.078 138.78 100.114 137.444 98.8679L135.439 96.9147C135.439 96.9147 132.869 99.369 132.059 100.23C131.545 100.77 131.006 101.425 130.839 102.71C130.813 102.881 130.8 103.053 130.8 103.224C130.792 103.37 130.787 103.524 130.787 103.687C130.787 103.687 130.8 103.815 130.852 104.046C130.967 104.83 131.288 105.55 131.764 106.154C132.304 106.899 133.139 107.58 134.437 107.837C134.471 107.846 134.514 107.854 134.565 107.863C134.839 107.914 135.122 107.94 135.413 107.94C137.97 107.94 140.039 105.884 140.039 103.34C140.039 103.323 140.039 103.305 140.039 103.288C140.065 102.903 140.026 102.376 139.782 101.836Z" fill="#FD6721"/>
<mask id="mask1_266_1846" style="mask-type:luminance" maskUnits="userSpaceOnUse" x="130" y="96" width="11" height="12">
<path d="M135.44 96.9442C135.44 96.9442 132.87 99.3921 132.057 100.252C131.425 100.92 130.754 101.744 130.791 103.71C130.791 103.71 131.093 107.183 134.442 107.867C134.749 107.93 136.421 108.016 137.327 107.483C138.387 106.855 139.701 105.933 139.979 103.842C140.006 103.638 140.191 102.755 139.789 101.857C139.471 101.15 138.807 100.163 137.442 98.891L135.44 96.9442Z" fill="white"/>
</mask>
<g mask="url(#mask1_266_1846)">
<path opacity="0.4" d="M128.333 100.731C128.333 103.25 130.376 105.28 132.895 105.28C135.4 105.28 137.444 103.25 137.444 100.731C137.444 98.2126 135.4 96.1823 132.895 96.1823C130.376 96.1823 128.333 98.2126 128.333 100.731Z" fill="#FDA36C"/>
</g>
<path d="M167.114 56.4243C167.397 56.707 167.423 57.1182 167.191 57.3624C166.947 57.5937 166.523 57.5551 166.253 57.2724L164.943 55.9617C164.66 55.679 164.634 55.255 164.878 55.0237C165.11 54.7795 165.534 54.8181 165.816 55.1008L167.114 56.4243Z" fill="#434C60"/>
<path d="M163.966 59.5597C164.249 59.8424 164.287 60.2665 164.043 60.4978C163.812 60.7419 163.388 60.7034 163.105 60.4207L161.807 59.0971C161.525 58.8144 161.486 58.3904 161.73 58.1591C161.974 57.9278 162.385 57.9663 162.668 58.249L163.966 59.5597Z" fill="#434C60"/>
<path d="M160.895 62.6437C161.178 62.9264 161.203 63.3505 160.972 63.5818C160.728 63.8131 160.304 63.7745 160.021 63.4918L158.723 62.1811C158.441 61.8984 158.415 61.4744 158.646 61.2431C158.89 60.9989 159.314 61.0375 159.584 61.3202L160.895 62.6437Z" fill="#434C60"/>
<path d="M157.734 65.8048C158.016 66.0875 158.042 66.5116 157.811 66.7429C157.567 66.9742 157.143 66.9356 156.86 66.6529L155.562 65.3422C155.279 65.0595 155.254 64.6355 155.485 64.4042C155.729 64.16 156.153 64.1986 156.423 64.4813L157.734 65.8048Z" fill="#434C60"/>
<mask id="mask2_266_1846" style="mask-type:luminance" maskUnits="userSpaceOnUse" x="148" y="68" width="22" height="13">
<path d="M169.02 68.592L158.76 78.7357C156.465 81.0308 152.744 81.0308 150.449 78.7357C148.154 76.4407 148.154 72.7194 150.449 70.4244L152.482 68.4082" fill="white"/>
</mask>
<g mask="url(#mask2_266_1846)">
<path opacity="0.4" d="M166.793 66.4988L156.539 76.6503C154.239 78.9376 150.512 78.9376 148.225 76.6503C145.925 74.3501 145.925 70.6364 148.225 68.3363L150.255 66.3188" fill="#FDA36C"/>
</g>
<path d="M154.65 68.8889C154.932 69.1716 154.958 69.5828 154.727 69.8269C154.483 70.0582 154.072 70.0197 153.789 69.737L152.478 68.4263C152.208 68.1436 152.17 67.7195 152.414 67.4754C152.645 67.2441 153.069 67.2826 153.352 67.5653L154.65 68.8889Z" fill="#434C60"/>
<path d="M90.0528 92.1217L98.1611 100.23C102.016 104.085 108.313 104.085 112.155 100.23C116.01 96.3879 116.01 90.0785 112.155 86.2364L104.046 78.1281L90.0528 92.1217Z" fill="#FD6721"/>
<path d="M104.034 78.1151L96.0537 70.1353C92.1987 66.2803 85.9022 66.2803 82.0601 70.1353C78.2051 73.9774 78.2051 80.2739 82.0601 84.1289L90.0399 92.1088L104.034 78.1151Z" fill="#9CD8D3"/>
<path opacity="0.4" d="M100.102 82.0601L110.677 92.6356C110.857 92.8155 111.101 92.9055 111.332 92.9055C111.577 92.9055 111.808 92.8155 111.988 92.6356C112.36 92.2758 112.36 91.6847 111.988 91.3249L101.412 80.7494L100.102 82.0601Z" fill="#FDA36C"/>
<path d="M101.412 80.7494L91.582 70.9191C91.2222 70.5465 90.6311 70.5465 90.2713 70.9191C89.9115 71.2789 89.9115 71.87 90.2713 72.2298L100.102 82.0601L101.412 80.7494Z" fill="#FCFCFC"/>
<path d="M202.979 215.931C202.349 215.931 201.886 215.43 201.886 214.813C201.886 214.197 202.349 213.708 202.979 213.708C203.608 213.708 204.097 214.197 204.097 214.813C204.097 215.43 203.608 215.931 202.979 215.931Z" fill="#325D7B"/>
</svg>
