<svg width="15" height="17" viewBox="0 0 15 17" fill="none" xmlns="http://www.w3.org/2000/svg">
<path d="M7.4231 4.08008V6.57758" stroke="white" stroke-width="1.5" stroke-miterlimit="10" stroke-linecap="round"/>
<path d="M7.43813 0.75C4.67814 0.75 2.44314 2.985 2.44314 5.745V7.32C2.44314 7.83 2.23314 8.595 1.97064 9.03L1.01814 10.62C0.433141 11.6025 0.838141 12.6975 1.91814 13.0575C5.50314 14.25 9.38063 14.25 12.9656 13.0575C13.9781 12.72 14.4131 11.535 13.8656 10.62L12.9131 9.03C12.6506 8.595 12.4406 7.8225 12.4406 7.32V5.745C12.4331 3 10.1831 0.75 7.43813 0.75Z" stroke="white" stroke-width="1.5" stroke-miterlimit="10" stroke-linecap="round"/>
<path d="M9.92063 13.3652C9.92063 14.7377 8.79563 15.8627 7.42313 15.8627C6.74063 15.8627 6.11063 15.5777 5.66066 15.1277C5.21066 14.6777 4.92566 14.0477 4.92566 13.3652" stroke="white" stroke-width="1.5" stroke-miterlimit="10"/>
</svg>
