<svg width="20" height="20" viewBox="0 0 20 20" fill="none" xmlns="http://www.w3.org/2000/svg">
<path d="M9 6.83008V9.32758" stroke="white" stroke-width="1.5" stroke-miterlimit="10" stroke-linecap="round"/>
<path d="M9.01503 3.5C6.25505 3.5 4.02005 5.735 4.02005 8.495V10.07C4.02005 10.58 3.81005 11.345 3.54755 11.78L2.59505 13.37C2.01005 14.3525 2.41505 15.4475 3.49505 15.8075C7.08005 17 10.9575 17 14.5425 15.8075C15.555 15.47 15.99 14.285 15.4425 13.37L14.49 11.78C14.2275 11.345 14.0175 10.5725 14.0175 10.07V8.495C14.01 5.75 11.76 3.5 9.01503 3.5Z" stroke="white" stroke-width="1.5" stroke-miterlimit="10" stroke-linecap="round"/>
<path d="M11.4975 16.1152C11.4975 17.4877 10.3725 18.6127 9.00003 18.6127C8.31753 18.6127 7.68753 18.3277 7.23756 17.8777C6.78756 17.4277 6.50256 16.7977 6.50256 16.1152" stroke="white" stroke-width="1.5" stroke-miterlimit="10"/>
<circle cx="18" cy="2" r="2" fill="#FF3C3F"/>
</svg>
