<svg width="34" height="26" viewBox="0 0 34 26" fill="none" xmlns="http://www.w3.org/2000/svg">
<rect width="34" height="26" rx="13" fill="#325D7B"/>
<path fill-rule="evenodd" clip-rule="evenodd" d="M15.2276 16.7734C13.5113 15.458 11.1666 13.285 11.1666 11.2305C11.1666 7.7982 14.3751 6.51675 17 9.16815C19.6248 6.51675 22.8333 7.7982 22.8333 11.2305C22.8333 13.2851 20.4886 15.458 18.7723 16.7734C17.9953 17.3689 17.6068 17.6667 17 17.6667C16.3931 17.6667 16.0046 17.3689 15.2276 16.7734ZM19.625 9.64583C19.8666 9.64583 20.0625 9.84171 20.0625 10.0833V10.8125H20.7916C21.0332 10.8125 21.2291 11.0084 21.2291 11.25C21.2291 11.4916 21.0332 11.6875 20.7916 11.6875H20.0625V12.4167C20.0625 12.6583 19.8666 12.8542 19.625 12.8542C19.3833 12.8542 19.1875 12.6583 19.1875 12.4167V11.6875H18.4583C18.2167 11.6875 18.0208 11.4916 18.0208 11.25C18.0208 11.0084 18.2167 10.8125 18.4583 10.8125H19.1875V10.0833C19.1875 9.84171 19.3833 9.64583 19.625 9.64583Z" fill="#9CD8D3"/>
</svg>
