<svg width="20" height="20" viewBox="0 0 20 20" fill="none" xmlns="http://www.w3.org/2000/svg">
<path d="M12.793 2.09648C12.9706 2.07328 13.1519 2.06168 13.3325 2.06168C13.3814 2.06168 13.4308 2.0623 13.4797 2.06473H13.4864C13.592 2.06473 13.6793 1.98051 13.6829 1.8743C13.6866 1.76566 13.6017 1.6741 13.4931 1.67043H13.4729H13.4705L13.468 1.6698H13.4662H13.465H13.4619H13.4613H13.4595C13.4302 1.66918 13.4009 1.66797 13.3716 1.66797H13.3667H13.3661H13.3642H13.3612H13.3606H13.3594H13.3582H13.357H13.3557H13.3545H13.3533H13.3521H13.3509H13.3497H13.3485H13.3473H13.3454H13.3448H13.3436H13.3424H13.3398H13.3374H13.3349H13.3325H13.33H13.3282H13.3275H13.3263H13.3251H13.3233H13.3227H13.3208H13.3203H13.3191H13.3179H13.3167H13.3161H13.3142H13.3136H13.3118H13.3106H13.3093H13.3087H13.3069H13.3044H13.302H13.3001H13.2995H13.2983H13.2971H13.2952H13.2946H13.2928H13.2922H13.2909H13.2897H13.2885H13.2879H13.2861H13.2854H13.2836H13.2824H13.2813H13.2806H13.2788H13.277H13.2763H13.2739H13.272H13.2714H13.2702H13.269H13.2678H13.2672L13.2653 1.66859H13.2641H13.2629H13.2617H13.2605H13.2599H13.2581H13.2556H13.255H13.2531H13.2525H13.2513H13.2507H13.2488H13.2482H13.2464H13.2457H13.2445H13.2433L13.2422 1.66922H13.241H13.2398H13.2391H13.2373H13.2361H13.2349H13.2337H13.2325H13.2318H13.23H13.2275H13.2251H13.2232H13.2227H13.2208H13.2202H13.2177H13.2165H13.2153H13.2141H13.2129H13.2117H13.2111L13.2092 1.66984H13.208H13.2068H13.2062H13.2043H13.2025H13.2019H13.1994H13.197H13.1957L13.1945 1.67047H13.1933H13.1921H13.1903H13.1897H13.1884H13.1872H13.186H13.1854H13.1836H13.1811H13.1799H13.1787H13.1781H13.1769H13.1763H13.175H13.1738H13.172H13.1714L13.1702 1.67109H13.169H13.1677H13.1665H13.1653H13.1647H13.1629H13.1616H13.1604L13.1598 1.67172H13.158H13.1555H13.1531H13.1506H13.1494H13.1482H13.147H13.1457H13.1439H13.1433H13.1421H13.1409L13.1397 1.67234H13.139H13.1372H13.1347H13.1323H13.1298H13.128H13.1273H13.125H13.1232H13.1225L13.1213 1.67297H13.1201H13.1189H13.1183H13.1165H13.1158H13.114H13.1134H13.1115H13.1091H13.1066L13.1048 1.67359H13.1041H13.1023H13.1017H13.1005H13.0993L13.0956 1.67422H13.095H13.0931H13.0907H13.0859H13.0835L13.0816 1.67484H13.081H13.0773H13.0761L13.0749 1.67547H13.0743H13.0725H13.0676H13.0651H13.0627L13.0584 1.67609H13.0578H13.0566H13.0554L13.0541 1.67672H13.0493H13.0469H13.0444L13.0395 1.67734H13.0377H13.0371L13.031 1.67777H13.0304H13.0286H13.0261L13.0212 1.6784H13.0194H13.0188L13.0102 1.67902C12.9198 1.68512 12.8307 1.6943 12.7429 1.70527C12.6354 1.71871 12.5585 1.81758 12.572 1.92563C12.5854 2.02512 12.6696 2.09773 12.7673 2.09773L12.793 2.09648Z" fill="#325D7B"/>
<path d="M11.4172 2.10156C11.3879 2.10156 11.3592 2.10766 11.3317 2.12109C11.2646 2.15344 11.1987 2.18703 11.134 2.22242L11.1217 2.22852L11.1193 2.22973L11.1156 2.23156V2.23219L11.1138 2.23281H11.1133L11.1096 2.23527L11.1078 2.23648H11.1071L11.1059 2.23711V2.23773L11.1035 2.23895L11.1023 2.23957H11.101L11.0998 2.24078L11.0974 2.24199L11.0962 2.2432H11.095L11.0937 2.24375V2.24437L11.0913 2.245V2.24562L11.0901 2.24625L11.0889 2.24687H11.0876L11.087 2.2475L11.0864 2.24812L11.0846 2.24934H11.0839L11.0827 2.25055H11.0821L11.0809 2.25117L11.0803 2.2518L11.0784 2.25242L11.0778 2.25305L11.0766 2.25367L11.076 2.2543H11.0753L11.0741 2.25492L11.0717 2.25676L11.0705 2.25738H11.0698L11.0686 2.25801H11.068L11.0643 2.26047L11.0625 2.26168L11.0583 2.26391L11.0565 2.26512H11.0559L11.0504 2.26816C10.9704 2.31332 10.8929 2.36031 10.8166 2.41039C10.7251 2.46961 10.6994 2.59105 10.7587 2.68262C10.7959 2.74059 10.8594 2.77234 10.9241 2.77234C10.9607 2.77234 10.9979 2.76195 11.0308 2.74059C11.1816 2.64293 11.3403 2.55441 11.5026 2.47629C11.6003 2.4293 11.6418 2.31148 11.5948 2.21383C11.5613 2.14305 11.4905 2.10156 11.4172 2.10156Z" fill="#325D7B"/>
<path d="M15.0598 2.00125L15.0562 1.99941H15.0555L15.0537 1.99879L15.0476 1.99633L15.0409 1.99328H15.0403C15.0061 1.97984 14.9719 1.96641 14.9365 1.95422C14.9145 1.94566 14.8913 1.94141 14.8681 1.94141C14.7888 1.94141 14.7131 1.99086 14.6838 2.0702C14.646 2.17273 14.6985 2.28566 14.8004 2.32348C14.9682 2.38574 15.1342 2.45898 15.2942 2.54258C15.3228 2.55723 15.354 2.56457 15.3845 2.56457C15.4559 2.56457 15.5249 2.52672 15.5597 2.45898C15.6103 2.36316 15.5725 2.24352 15.476 2.19348C15.357 2.13121 15.2343 2.07383 15.1092 2.02137L15.1025 2.01891L15.1006 2.0177L15.0964 2.01648L15.0939 2.01527L15.0903 2.01344L15.0878 2.01281L15.0817 2.01035L15.0756 2.0073H15.0744L15.0732 2.00668L15.0683 2.00484L15.0665 2.00422H15.0658L15.0622 2.00238V2.00176L15.0598 2.00125Z" fill="#325D7B"/>
<path d="M8.35145 13.6211C8.12746 13.427 7.79664 13.311 7.35903 13.2726L6.76942 13.2213C6.55883 13.2005 6.40993 13.1505 6.32082 13.073C6.23172 12.9955 6.18778 12.885 6.18778 12.7409C6.18778 12.5798 6.25004 12.4504 6.37454 12.3503C6.49907 12.2508 6.69192 12.2008 6.95192 12.2008C7.15149 12.2008 7.34071 12.2246 7.52078 12.2716C7.70145 12.318 7.9102 12.4669 7.9102 12.4669C7.95782 12.492 8.01578 12.4816 8.05301 12.4437L8.40579 12.0861C8.43325 12.058 8.44606 12.0195 8.43996 11.9805C8.43387 11.942 8.41067 11.9091 8.37586 11.8907C8.37586 11.8907 8.09938 11.6741 7.83629 11.6027C7.68188 11.5599 7.51465 11.5325 7.34008 11.5148V10.9844H6.58996V11.5257C6.50512 11.5392 6.4209 11.555 6.34157 11.5782C6.15051 11.6332 5.98266 11.7162 5.83864 11.8273C5.6952 11.9371 5.58168 12.0732 5.49805 12.2337C5.41504 12.3943 5.37352 12.5774 5.37352 12.7825C5.37352 13.1529 5.48094 13.43 5.69825 13.6132C5.91371 13.795 6.22071 13.9061 6.61989 13.9452L7.2925 14.0026C7.49758 14.0258 7.64286 14.0777 7.72828 14.1607C7.81496 14.2443 7.85707 14.3578 7.85707 14.5012C7.85707 14.7014 7.77039 14.8473 7.59582 14.9425C7.42188 15.0365 7.20094 15.0829 6.93543 15.0829C6.72485 15.0829 6.51368 15.0536 6.30004 14.9962C6.08704 14.9377 5.80567 14.6935 5.80567 14.6935C5.75684 14.6642 5.69457 14.6715 5.65368 14.7118L5.27832 15.0872C5.25145 15.1141 5.23805 15.1519 5.24293 15.1897C5.24782 15.2276 5.26981 15.2611 5.30274 15.2807C5.30274 15.2807 5.68664 15.6048 5.98024 15.6853C6.17313 15.7378 6.37637 15.7714 6.58996 15.7897V16.4049H7.34008V15.7769C7.4402 15.7634 7.53907 15.747 7.63305 15.7232C7.84911 15.667 8.03465 15.5828 8.18969 15.4686C8.34411 15.3557 8.4668 15.2159 8.55528 15.0499C8.64375 14.8839 8.68774 14.6904 8.68774 14.4677C8.68774 14.0972 8.57668 13.8152 8.35145 13.6211Z" fill="#325D7B"/>
<path d="M6.96533 7.39062C3.48389 7.39062 0.661621 10.2129 0.661621 13.6943C0.661621 17.1758 3.48389 19.998 6.96533 19.998C10.4468 19.998 13.269 17.1758 13.269 13.6943C13.269 10.2129 10.4468 7.39062 6.96533 7.39062ZM6.96533 19.0129C4.03197 19.0129 1.64674 16.6271 1.64674 13.6943C1.64674 10.7616 4.03201 8.37574 6.96533 8.37574C9.89748 8.37574 12.2839 10.7616 12.2839 13.6943C12.2839 16.6271 9.89744 19.0129 6.96533 19.0129Z" fill="#325D7B"/>
<path d="M6.40015 9.49223L6.42578 9.49039C6.60277 9.46781 6.78468 9.45621 6.96535 9.45621C7.01417 9.45621 7.063 9.45684 7.11183 9.45926H7.11917C7.22476 9.45926 7.31206 9.37504 7.3157 9.26883C7.31937 9.1602 7.2339 9.06863 7.12527 9.06496H7.10574H7.10327L7.10081 9.06434H7.10019H7.09835H7.09773H7.0971H7.09406H7.09222C7.06292 9.06371 7.03363 9.0625 7.00433 9.0625H6.99945H6.99824H6.99702H6.9964H6.99335H6.99218H6.99097H6.98976H6.98855H6.98734H6.9855H6.98488H6.98367H6.98246H6.98062H6.97999H6.97753H6.9757H6.97507H6.97265H6.97019H6.96956H6.96773H6.96527H6.96281H6.96035H6.95851H6.95788H6.95605H6.95542H6.95312H6.95191H6.9507H6.94949H6.94828H6.94706H6.94585H6.94464H6.94343H6.94222H6.94101H6.9398H6.93917H6.93734H6.93488H6.93425H6.93242H6.93058H6.92995H6.92812H6.92749H6.92503H6.92382H6.92261H6.9214H6.92019H6.91898H6.91777H6.91656H6.91535H6.91406H6.91285H6.91163H6.91101H6.90917H6.90671H6.90609H6.90425H6.90242H6.90179H6.89996H6.89933L6.89749 9.06313H6.89687H6.89566H6.89453H6.89331H6.8921H6.89089H6.89027H6.88843H6.88722H6.88601H6.88538H6.88355H6.88109H6.87863H6.87679H6.87617L6.87433 9.06375H6.8737H6.87187H6.87124H6.86941H6.86878H6.86757H6.86636H6.86515H6.86452H6.86269H6.86023H6.8596H6.85777H6.85714H6.85546H6.85363H6.853H6.85054H6.8487H6.84808H6.84624H6.84562H6.84441H6.8432L6.84199 9.06438H6.84077H6.83956H6.83835H6.83714H6.83652H6.83468H6.83222H6.82976H6.82792L6.8273 9.065H6.82546H6.82484H6.82238H6.82117H6.81995H6.81874H6.81753H6.8164H6.81577H6.81394H6.81273H6.81152H6.81089H6.80906H6.80722H6.8066H6.80413H6.80351L6.8023 9.06563H6.80167H6.79984H6.79921H6.798H6.79687H6.79566H6.79445H6.79324L6.79203 9.06625H6.79081H6.79019H6.78835H6.78589H6.78343H6.7816H6.78097H6.77913H6.77851H6.77605H6.77484H6.77363L6.77242 9.06687H6.7712H6.76999H6.76937H6.76753H6.76691H6.76507H6.76445H6.76261H6.76015H6.75781H6.75535L6.75413 9.0675H6.75292H6.75171H6.75109H6.74863H6.748H6.74679H6.74558H6.74437H6.74374H6.74191H6.73945L6.73699 9.06813H6.73453H6.73269H6.73206L6.72781 9.06875H6.72718H6.72597H6.72535H6.72351H6.71874H6.71628L6.71382 9.06938H6.70956H6.70894L6.70773 9.07H6.70652H6.70531H6.70468H6.70042H6.6998H6.69796H6.6955L6.69062 9.07063H6.68878H6.68816L6.68695 9.07125H6.68632H6.68206H6.68144H6.67968H6.67722L6.67234 9.07188H6.66988L6.66316 9.0725H6.66132H6.6607H6.65886L6.65398 9.07313H6.65152L6.64296 9.07375H6.64234C6.55261 9.07984 6.46351 9.0884 6.37562 9.1C6.26757 9.11344 6.19128 9.21231 6.20472 9.32035C6.21765 9.41961 6.30249 9.49223 6.40015 9.49223Z" fill="#325D7B"/>
<path d="M5.22707 9.6084C5.19351 9.53758 5.12332 9.49609 5.04945 9.49609C5.02078 9.49609 4.99207 9.50219 4.96461 9.51562C4.89746 9.54797 4.83156 9.58156 4.76683 9.61695L4.75461 9.62305L4.75215 9.62426L4.74847 9.62609V9.62672L4.74601 9.62734L4.74234 9.6298L4.74051 9.63102H4.73988L4.73867 9.63164L4.73804 9.63227L4.73621 9.63289L4.73437 9.6341H4.73375L4.73254 9.63531H4.73191L4.73008 9.63652H4.72945L4.72824 9.63773H4.72761L4.72656 9.63828L4.72593 9.63891L4.7241 9.63953L4.72347 9.64016L4.72226 9.64078L4.72164 9.64141H4.72043L4.7198 9.64203L4.71859 9.64266L4.71676 9.64387L4.71554 9.64508H4.71433L4.71312 9.6457V9.64633L4.71066 9.64695V9.64758L4.70945 9.6482L4.70824 9.64867H4.70761L4.70699 9.6493L4.70453 9.65113L4.70332 9.65176H4.70211L4.7009 9.65238L4.69722 9.65484H4.6966L4.69476 9.65605L4.69051 9.65852L4.68867 9.65973L4.68258 9.66277C4.60324 9.70793 4.52511 9.75492 4.44883 9.805C4.35789 9.86422 4.33226 9.98566 4.39086 10.0772C4.42871 10.1352 4.49218 10.167 4.55687 10.167C4.59351 10.167 4.63011 10.1566 4.66308 10.1352C4.81445 10.0375 4.97316 9.94902 5.13488 9.8709C5.23316 9.82383 5.27465 9.70605 5.22707 9.6084Z" fill="#325D7B"/>
<path d="M5.56643 17.7001C5.39674 17.6403 5.22952 17.5695 5.06901 17.4895C5.04034 17.4755 5.01042 17.4688 4.98049 17.4688C4.90846 17.4688 4.83889 17.5084 4.80471 17.5768C4.75588 17.6745 4.79495 17.7929 4.8926 17.8417C4.95241 17.8722 5.01346 17.9009 5.07573 17.9284L5.08182 17.9308L5.08792 17.9339V17.9345L5.09038 17.9351L5.09221 17.9357L5.09284 17.9364H5.09405L5.09467 17.937L5.09651 17.9376L5.09897 17.9388L5.10018 17.9395H5.10139L5.1026 17.9407L5.10506 17.9419L5.1069 17.9425H5.10752L5.10874 17.9431L5.10936 17.9438L5.1112 17.9444L5.11366 17.945V17.9456H5.11487L5.11608 17.9462L5.11729 17.9469H5.11792L5.11975 17.9481H5.12038L5.12159 17.9487L5.12221 17.9493L5.12342 17.95H5.12463L5.12526 17.9506L5.1271 17.9512L5.12772 17.9518H5.12893L5.12956 17.9525L5.13077 17.9531H5.13139L5.13323 17.9543H5.13444L5.13565 17.9549L5.13628 17.9555H5.1369L5.13811 17.9562L5.14057 17.9568V17.9574H5.14178L5.14299 17.958H5.14362L5.14424 17.9587L5.14792 17.9605H5.14913L5.15034 17.9611V17.9618L5.1546 17.9636H5.15522L5.15643 17.9642H5.15706L5.15827 17.9648H5.15889L5.16135 17.9661L5.16256 17.9667H5.16378L5.16499 17.9679L5.16987 17.9697L5.17108 17.9704H5.1717L5.17596 17.9722L5.17842 17.9728L5.18268 17.9753H5.18331L5.18452 17.9759L5.1894 17.9777L5.19061 17.9784H5.19124L5.19733 17.9814H5.19795L5.20405 17.9839L5.20526 17.9851H5.20588L5.21014 17.9863H5.21077L5.21198 17.9875H5.2126L5.21749 17.9893L5.2187 17.99L5.21991 17.9912H5.22053L5.22542 17.993H5.22725L5.23213 17.9955L5.23335 17.9961L5.23823 17.9979L5.23944 17.9986H5.24065L5.24491 18.0004L5.24674 18.001L5.25163 18.0035H5.25284L5.25346 18.0041L5.25467 18.0047H5.2553L5.25897 18.0066L5.26018 18.0072H5.26139V18.0078L5.26565 18.009L5.26627 18.0096H5.26749H5.2687L5.26991 18.0109L5.27237 18.0115L5.27299 18.0121H5.2742L5.27483 18.0127L5.27604 18.0134H5.27725L5.27846 18.014L5.27967 18.0146H5.28088L5.28151 18.0152L5.28213 18.0159H5.28335L5.28518 18.0171H5.28581L5.28702 18.0177H5.28823L5.28944 18.0183H5.29006L5.29069 18.0189L5.29253 18.0196L5.29315 18.0202L5.29436 18.0208H5.29557L5.29678 18.0214H5.29741L5.29924 18.0221H5.29987L5.30171 18.0233L5.30292 18.0239H5.30413L5.30534 18.0245L5.30655 18.0252L5.30776 18.0258H5.30838L5.3096 18.0264L5.31022 18.027L5.31268 18.0277L5.31389 18.0283H5.3151L5.31631 18.0289H5.31694L5.31878 18.0295L5.32124 18.0307L5.32307 18.0314L5.3237 18.032L5.32491 18.0326L5.32737 18.0332L5.32983 18.0345L5.33167 18.0351H5.33229L5.33596 18.0363L5.33842 18.0369C5.37139 18.0497 5.40374 18.0613 5.4367 18.0729C5.45807 18.0803 5.48002 18.0845 5.50202 18.0845C5.5826 18.0845 5.65948 18.0332 5.68756 17.9515C5.72331 17.8478 5.66897 17.7355 5.56643 17.7001Z" fill="#325D7B"/>
<path d="M3.61695 16.2989C3.57851 16.2489 3.5205 16.2227 3.46191 16.2227C3.41918 16.2227 3.37707 16.2367 3.34105 16.2642C3.25558 16.3313 3.23972 16.4546 3.30625 16.5407C3.34226 16.5864 3.37886 16.6316 3.41613 16.6768L3.41918 16.6804L3.42039 16.6816L3.42406 16.6853V16.6859L3.42527 16.6866V16.6878L3.42648 16.6884V16.689L3.42769 16.6909L3.4289 16.6915V16.6927L3.43011 16.6933V16.6939L3.43132 16.6952L3.43254 16.6958L3.43316 16.6964L3.43379 16.6976L3.43441 16.6988H3.43504L3.43625 16.7007L3.4375 16.7018L3.43812 16.7024L3.43875 16.7036L3.43996 16.7043L3.44117 16.7061L3.44238 16.7073L3.44359 16.7085L3.44422 16.7091L3.44668 16.7128L3.4473 16.7134L3.44851 16.7141V16.7147L3.45097 16.7184L3.45336 16.7195C3.53148 16.8111 3.61328 16.8983 3.69812 16.9832C3.73656 17.021 3.78664 17.0405 3.83668 17.0405C3.88797 17.0405 3.938 17.021 3.97707 16.9826C4.05398 16.9051 4.05277 16.7805 3.97586 16.7036C3.84886 16.5767 3.72804 16.4405 3.61695 16.2989Z" fill="#325D7B"/>
<path d="M2.55251 13.432C2.652 13.432 2.73743 13.357 2.74782 13.2556C2.76614 13.0762 2.79665 12.8973 2.83817 12.7222C2.86259 12.6166 2.79665 12.511 2.69106 12.486L2.64528 12.4805C2.55618 12.4805 2.4756 12.5415 2.45423 12.6325C2.40966 12.8223 2.37673 13.017 2.35595 13.2154C2.34497 13.3228 2.4231 13.4204 2.53173 13.4314L2.55251 13.432Z" fill="#325D7B"/>
<path d="M3.66333 11.0353C3.73169 10.9511 3.71825 10.8265 3.63341 10.7582C3.59739 10.7289 3.55345 10.7148 3.5095 10.7148C3.45212 10.7148 3.39598 10.7399 3.35692 10.7875C3.32458 10.8277 3.29345 10.868 3.26231 10.9089L3.25927 10.9132L3.25805 10.9144L3.25438 10.9199H3.25376L3.2495 10.9254L3.24583 10.9309L3.24157 10.9364V10.937L3.23364 10.948C3.18114 11.0182 3.1311 11.0902 3.08348 11.1641H3.08286L3.07919 11.1696V11.1702L3.07856 11.1714L3.0761 11.1739V11.1745L3.07548 11.1757L3.07485 11.1769V11.1775L3.07239 11.18L3.07177 11.1812L3.07114 11.1818V11.183H3.06993L3.06872 11.1855V11.1861L3.06809 11.1868L3.06747 11.188L3.06684 11.1886L3.06622 11.1898L3.06559 11.1904L3.06497 11.1923L3.06434 11.1929L3.06372 11.1935L3.06309 11.1941L3.06247 11.1954L3.06184 11.1966L3.06122 11.1978L3.06059 11.1984L3.05997 11.1996L3.05934 11.2002L3.05872 11.2014L3.05809 11.2021L3.05747 11.2039H3.05684L3.05622 11.2057L3.05559 11.2064L3.05497 11.2076H3.05434L3.05188 11.2118C3.03907 11.2314 3.02684 11.2509 3.01524 11.2704C2.95848 11.3632 2.98657 11.4846 3.07934 11.5414C3.11169 11.5616 3.1477 11.5707 3.18309 11.5707C3.24903 11.5707 3.31372 11.5378 3.35032 11.4768C3.44485 11.324 3.54981 11.1757 3.66333 11.0353Z" fill="#325D7B"/>
<path d="M2.82162 14.6004C2.80146 14.5076 2.7197 14.4453 2.62935 14.4453L2.58724 14.449C2.48103 14.4722 2.4133 14.5771 2.4365 14.6834C2.47861 14.8775 2.53295 15.0673 2.59885 15.2522C2.62752 15.3322 2.70322 15.3829 2.78439 15.3829C2.80638 15.3829 2.82834 15.3786 2.85033 15.3712C2.95287 15.3346 3.00595 15.2217 2.96998 15.1192C2.90951 14.9501 2.8601 14.7755 2.82162 14.6004Z" fill="#325D7B"/>
<path d="M9.3091 17.2656C9.27308 17.2656 9.23706 17.2754 9.2041 17.2961C9.0521 17.3907 8.8916 17.4768 8.72925 17.5519C8.63038 17.597 8.58644 17.7142 8.6316 17.8131C8.66456 17.8852 8.7366 17.9279 8.81105 17.9279C8.83851 17.9279 8.86597 17.9224 8.89285 17.9102C9.00148 17.8602 9.10831 17.8064 9.21269 17.7484L9.21453 17.7472H9.21515L9.21882 17.7448L9.22066 17.7436H9.22128L9.22495 17.7417L9.22617 17.7405H9.22738L9.22859 17.7393L9.23105 17.7381L9.23226 17.7375L9.23347 17.7368L9.23468 17.7362V17.7356L9.23714 17.735V17.7343L9.23835 17.7337L9.23956 17.7331L9.24019 17.7325L9.24081 17.7318L9.24265 17.7312L9.24328 17.7306L9.24449 17.73H9.2457L9.24632 17.7293L9.24695 17.7287L9.24816 17.7281L9.24999 17.7269H9.25062L9.25183 17.7262V17.7256L9.25304 17.725H9.25367L9.25671 17.7232L9.25792 17.7225L9.25913 17.7219H9.25976L9.26402 17.7189L9.26523 17.7182C9.31527 17.6896 9.36472 17.6596 9.41355 17.6297C9.5057 17.5718 9.53378 17.4509 9.4764 17.3581C9.43847 17.2992 9.37437 17.2656 9.3091 17.2656Z" fill="#325D7B"/>
<path d="M10.8117 15.9172C10.7788 15.8965 10.7422 15.8867 10.7055 15.8867C10.6408 15.8867 10.5774 15.9185 10.5395 15.9771C10.4431 16.1284 10.3356 16.2755 10.2203 16.4129C10.1507 16.4965 10.1617 16.621 10.2453 16.6905C10.282 16.7217 10.3271 16.7363 10.3711 16.7363C10.4278 16.7363 10.4834 16.7125 10.5224 16.6655C10.625 16.5441 10.7202 16.4165 10.8093 16.284L10.8105 16.2822H10.8111L10.813 16.2785L10.8136 16.2779L10.8148 16.2761L10.816 16.2748L10.8172 16.2724H10.8179L10.8185 16.2712L10.8191 16.27L10.8197 16.2687H10.8203L10.8215 16.2669V16.2663L10.8227 16.2651V16.2645L10.8239 16.2632V16.2626L10.8251 16.2614V16.2608L10.8263 16.2596V16.2589L10.8275 16.2577V16.2565L10.8288 16.2553L10.8294 16.2547L10.83 16.2541V16.2529L10.8312 16.2522L10.8337 16.248L10.8343 16.2468H10.8349L10.8374 16.2425V16.2419L10.8386 16.2407L10.8423 16.2352V16.2345L10.8716 16.1894C10.9302 16.0979 10.9033 15.9758 10.8117 15.9172Z" fill="#325D7B"/>
<path d="M11.3165 13.022L11.3549 13.0183C11.4617 12.9969 11.5307 12.8937 11.51 12.7863L11.5051 12.7625V12.7619V12.7607H11.5045L11.5038 12.7558V12.7552L11.5032 12.754V12.7534L11.5026 12.7485L11.502 12.7479L11.5013 12.7466V12.746V12.7448V12.7442L11.5007 12.7411L11.5001 12.7399V12.7393V12.7381L11.4995 12.7369V12.7363L11.4988 12.7344V12.7332V12.7327V12.7314L11.4982 12.7302L11.4976 12.729V12.7278V12.7266L11.497 12.7254V12.7242L11.4963 12.723V12.7223V12.7211V12.7205L11.4951 12.7187V12.718V12.7162V12.7156V12.7144L11.4945 12.7132L11.4939 12.7113V12.7095V12.7089L11.4933 12.707L11.4926 12.7064V12.7046L11.492 12.7021L11.4914 12.7003V12.6996V12.6978L11.4904 12.6936V12.693L11.4898 12.6911V12.6905L11.488 12.6838V12.682L11.4868 12.6771L11.4861 12.6752L11.4843 12.6686V12.6679L11.4831 12.6594H11.4825C11.4599 12.558 11.4331 12.458 11.4038 12.3603L11.4013 12.3512L11.397 12.3384V12.3377L11.3946 12.3298H11.394L11.3927 12.3231V12.3225L11.3915 12.3207L11.3897 12.3139L11.3879 12.3079V12.3072L11.3866 12.3054L11.3854 12.3011V12.3005L11.3848 12.2987L11.3842 12.298L11.3836 12.2944H11.3829V12.2919L11.3817 12.2901V12.2895V12.2876L11.3805 12.2858V12.2852L11.3799 12.2833V12.2827L11.3793 12.2809L11.3781 12.279V12.2784V12.2772V12.276L11.3768 12.2748V12.2741L11.3762 12.2723L11.3756 12.2705V12.2698V12.268L11.3744 12.2674V12.2662V12.2655L11.3733 12.2639V12.2633V12.2614L11.3726 12.2608L11.372 12.2596V12.259V12.2571L11.3708 12.2565V12.2553V12.2541L11.3702 12.2529L11.3695 12.2523V12.2516L11.3689 12.2498L11.3683 12.2486V12.248V12.2468L11.3677 12.2455L11.3672 12.245V12.2438V12.2426L11.3659 12.2407V12.2401V12.2389L11.3653 12.2383L11.3647 12.2371V12.2364L11.3641 12.2346L11.3634 12.2334V12.2322V12.2316L11.3628 12.2309L11.3622 12.2297L11.361 12.2255V12.2248L11.3604 12.2236H11.3597V12.2224V12.2212L11.3585 12.2188V12.2181V12.2169L11.3573 12.2157C11.3299 12.1333 11.2536 12.082 11.1711 12.082C11.1504 12.082 11.129 12.0845 11.1083 12.0918C11.0051 12.1266 10.9496 12.2383 10.9844 12.3414C11.0411 12.5117 11.0888 12.6875 11.1229 12.8633C11.1425 12.9573 11.2243 13.022 11.3165 13.022Z" fill="#325D7B"/>
<path d="M7.45363 17.9102L7.43164 17.9114C7.27781 17.9285 7.12098 17.937 6.96531 17.937C6.9409 17.937 6.91586 17.9364 6.89145 17.9364H6.8884C6.78098 17.9364 6.69309 18.0218 6.69125 18.1293C6.68942 18.2385 6.77547 18.3276 6.88414 18.3301C6.90488 18.3307 6.92504 18.3307 6.94578 18.3307H6.94641H6.94824H6.95192H6.95313H6.95434H6.95555H6.95676H6.95797H6.95981H6.96043H6.96227H6.96289H6.96535H6.96719H6.96781H6.96903H6.96965H6.97086H6.97149H6.9727H6.97391H6.97512H6.97574H6.97695H6.97758H6.97879H6.98H6.98063H6.98125H6.98246H6.98367H6.98488H6.98551H6.98672H6.98735H6.98856H6.98977H6.99344H6.99528H6.9959H6.99711H6.99832H6.99953H7.00074H7.00195H7.00317H7.00438H7.005H7.00563H7.00684H7.00805H7.00926H7.01047H7.01168H7.01289H7.01352H7.01535H7.01961H7.02024H7.02145H7.02207H7.02328H7.02391H7.02512H7.02633H7.02754H7.02875H7.02996H7.03125H7.03188H7.03371L7.03492 18.3301H7.03613H7.03735H7.03797H7.03981H7.0459H7.04774H7.04957H7.0502H7.05141H7.05203H7.05324H7.05445H7.05567L7.0575 18.3295H7.05813H7.05934H7.05996H7.0618H7.06301H7.06422H7.06543H7.06606H7.07399H7.07582H7.07766H7.08012H7.08133H7.08254H7.08375H7.08621H7.08742H7.08988L7.10574 18.3282H7.1082H7.11004C7.23274 18.3246 7.35481 18.316 7.47504 18.3032C7.58309 18.291 7.66121 18.1939 7.64899 18.0853C7.63793 17.9852 7.5525 17.9102 7.45363 17.9102Z" fill="#325D7B"/>
<path d="M11.3928 14.0403L11.3696 14.0391C11.2708 14.0391 11.1859 14.1123 11.1743 14.2124C11.1523 14.3907 11.1194 14.5695 11.0755 14.7434C11.048 14.849 11.1121 14.9559 11.2171 14.9827L11.2659 14.9888C11.3538 14.9888 11.4337 14.9296 11.4563 14.8411C11.4667 14.8008 11.4758 14.7611 11.4856 14.7214V14.7208V14.719L11.4868 14.7141V14.7123L11.4874 14.7116L11.4881 14.7104V14.7098V14.7073L11.4887 14.7067L11.4893 14.7055V14.7043V14.7037V14.7025V14.7012L11.4899 14.7L11.4906 14.6988V14.6976V14.697V14.6958L11.4912 14.6946L11.4918 14.6934V14.6927V14.6909V14.6903L11.493 14.6884V14.6878V14.6866V14.686L11.4942 14.6817V14.6811V14.6793L11.4955 14.6774L11.4961 14.6725L11.4967 14.6707V14.6701L11.4979 14.664C11.526 14.5309 11.5486 14.3961 11.5651 14.2593C11.5784 14.1514 11.5015 14.0537 11.3928 14.0403Z" fill="#325D7B"/>
<path d="M8.43263 9.71813C8.60111 9.78039 8.76712 9.85363 8.92701 9.93723C8.95568 9.95188 8.98681 9.95922 9.01736 9.95922C9.08818 9.95922 9.15712 9.92137 9.19251 9.85363C9.24318 9.75781 9.20533 9.63816 9.10888 9.58813C8.98923 9.52586 8.86716 9.46848 8.74146 9.41602L8.73536 9.41355L8.73353 9.41234H8.7329L8.72923 9.41113L8.72677 9.40992L8.72251 9.40809L8.72068 9.40746L8.71458 9.405H8.71396L8.70786 9.40195H8.70724L8.7054 9.40133L8.70115 9.39949L8.69868 9.39887L8.69501 9.39703V9.39641L8.69255 9.39578L8.68829 9.39395H8.68767L8.68646 9.39332V9.3927L8.67974 9.39086L8.67302 9.38781C8.63884 9.37438 8.60404 9.36094 8.56927 9.34875C8.54669 9.3402 8.52411 9.33594 8.50091 9.33594C8.42095 9.33594 8.34587 9.38539 8.31658 9.46473C8.27884 9.56734 8.33072 9.68027 8.43263 9.71813Z" fill="#325D7B"/>
<path d="M10.5151 11.2297C10.5567 11.2297 10.5975 11.2169 10.6335 11.19C10.7202 11.1253 10.7373 11.0014 10.6726 10.9141C10.6061 10.8262 10.5371 10.7407 10.4651 10.6577H10.4644L10.4614 10.6541L10.4602 10.6529V10.6522L10.4571 10.6492L10.4565 10.6486L10.4553 10.6473L10.4541 10.6455L10.4529 10.6437V10.6431L10.4517 10.6419H10.451L10.4492 10.6407L10.448 10.6389V10.6382L10.4468 10.637V10.6364L10.4456 10.6352L10.4444 10.6346L10.4437 10.6334H10.4431L10.4419 10.6321V10.6315L10.4407 10.6303V10.6297L10.4395 10.6285L10.4383 10.6279L10.4376 10.6266L10.437 10.626L10.4364 10.6254L10.4358 10.6248L10.4346 10.6229L10.4333 10.6223V10.6211L10.4321 10.6205V10.6198L10.4309 10.6192L10.4297 10.6181L10.4291 10.6175L10.4284 10.6163L10.4278 10.6156L10.4272 10.615L10.4247 10.612L10.4235 10.6113L10.4229 10.6101H10.4223L10.4198 10.6064L10.4192 10.6058L10.4185 10.6052H10.4179L10.4149 10.6015V10.6009L10.4137 10.5997V10.5991L10.41 10.596L10.4088 10.5948V10.5942L10.4051 10.5911V10.5905L10.4039 10.5893L10.3998 10.5845H10.3991L10.3955 10.5796L10.3948 10.579L10.3857 10.5693V10.5686C10.3539 10.5345 10.321 10.4996 10.288 10.4655C10.2496 10.4258 10.1983 10.4062 10.1471 10.4062C10.0976 10.4062 10.0482 10.4246 10.0097 10.4618C9.93159 10.5375 9.93038 10.662 10.006 10.7401C10.1306 10.8689 10.249 11.0075 10.3576 11.1509C10.3955 11.2022 10.4553 11.2297 10.5151 11.2297Z" fill="#325D7B"/>
<path d="M9.01305 5.08594C8.92395 5.08594 8.84278 5.14699 8.82141 5.23793C8.77684 5.42773 8.74391 5.62246 8.72313 5.82082C8.71215 5.92887 8.79086 6.0259 8.89891 6.03688L8.91965 6.0375C9.01914 6.0375 9.1052 5.96242 9.11496 5.86109C9.13329 5.68164 9.16379 5.50281 9.20532 5.32824C9.22973 5.22203 9.16442 5.11645 9.05883 5.09141L9.01305 5.08594Z" fill="#325D7B"/>
<path d="M9.72415 3.39664C9.69239 3.43692 9.66067 3.47723 9.63016 3.51809L9.62649 3.52235L9.62528 3.52356L9.62161 3.52906L9.61735 3.53457L9.61309 3.54067L9.60938 3.54555V3.54617L9.60083 3.55715C9.54833 3.62735 9.49829 3.69938 9.45067 3.7732L9.447 3.77871V3.77934L9.44579 3.78055L9.44395 3.78301V3.78363L9.44333 3.78485L9.44212 3.78606V3.78668L9.43966 3.78914V3.79035L9.43903 3.79098L9.43841 3.79219H9.43778L9.43657 3.79465L9.43595 3.79528V3.7959L9.43473 3.79711V3.79774L9.43352 3.79895V3.79957L9.43231 3.80141V3.80203L9.4311 3.80266V3.80328L9.42989 3.80449V3.8057L9.42868 3.80692V3.80754L9.42747 3.80938L9.42626 3.81059V3.81121L9.42505 3.81305L9.42384 3.81488V3.81551L9.42262 3.81672V3.81735L9.42016 3.82102C9.40735 3.84055 9.39454 3.86008 9.38294 3.88024C9.32618 3.97238 9.35485 4.09387 9.44762 4.15063C9.47997 4.17078 9.51536 4.17992 9.55079 4.17992C9.61673 4.17992 9.68141 4.14695 9.71864 4.08594C9.81262 3.93336 9.91763 3.78504 10.0305 3.64465C10.0989 3.56043 10.0854 3.4359 10.0012 3.36754C9.96458 3.33824 9.92063 3.32422 9.87731 3.32422C9.81997 3.32399 9.76321 3.34903 9.72415 3.39664Z" fill="#325D7B"/>
<path d="M14.9988 10.4228C15.0323 10.4948 15.1038 10.5375 15.1782 10.5375C15.2063 10.5375 15.2338 10.532 15.26 10.5198C15.3693 10.4698 15.4761 10.4161 15.5799 10.3581L15.5823 10.3569L15.586 10.3544L15.5885 10.3538L15.5921 10.3513L15.594 10.3501H15.5946L15.5958 10.3489L15.5983 10.3477L15.5995 10.3471L15.6007 10.3464L15.6019 10.3458L15.6025 10.3452L15.6044 10.3446V10.3439L15.6056 10.3433L15.6068 10.3427L15.608 10.3421V10.3414L15.6105 10.3408V10.3402L15.6117 10.3396H15.6129L15.6135 10.3389L15.6141 10.3383L15.6153 10.3377L15.6172 10.3365H15.6178L15.619 10.3359H15.6196L15.6209 10.3346H15.6215L15.6239 10.3328L15.6251 10.3322L15.627 10.3316L15.6312 10.3285L15.6331 10.3279C15.6825 10.2992 15.7326 10.2693 15.7814 10.2394C15.873 10.1814 15.901 10.0605 15.8437 9.96777C15.8058 9.90855 15.7423 9.875 15.6764 9.875C15.641 9.875 15.6044 9.88477 15.5721 9.90551C15.4195 10.0001 15.2596 10.0862 15.0966 10.1612C14.9976 10.2067 14.9536 10.3239 14.9988 10.4228Z" fill="#325D7B"/>
<path d="M16.5882 9.01832C16.518 9.10195 16.5296 9.22645 16.6126 9.29602C16.6492 9.32715 16.6944 9.3418 16.7389 9.3418C16.7957 9.3418 16.8512 9.31801 16.8896 9.27098C16.9922 9.14953 17.0874 9.02195 17.1765 8.88949H17.1771L17.1783 8.88766L17.1808 8.88398L17.1814 8.88336L17.1821 8.88215H17.1827L17.1839 8.88031L17.1851 8.87785L17.1857 8.87664L17.1864 8.87543L17.1876 8.8748V8.87418L17.1888 8.87234V8.87172L17.19 8.87051V8.86988L17.1912 8.86867V8.86805L17.1924 8.86684V8.86621L17.1936 8.865V8.86437L17.1948 8.86316V8.86195L17.196 8.86074L17.1967 8.86012L17.1973 8.85949L17.1979 8.85828L17.1985 8.85766L17.201 8.8534L17.2022 8.85219L17.2047 8.84793V8.8473L17.2059 8.84668V8.84621L17.2096 8.8407V8.84008L17.2395 8.79492C17.2974 8.70336 17.2712 8.58129 17.179 8.5227C17.1467 8.50195 17.1095 8.49219 17.0735 8.49219C17.0081 8.49219 16.9447 8.52395 16.9068 8.58254C16.8103 8.73391 16.7029 8.88102 16.5882 9.01832Z" fill="#325D7B"/>
<path d="M17.7258 4.82629L17.7252 4.82508C17.6977 4.7427 17.6208 4.69141 17.5385 4.69141C17.5177 4.69141 17.4963 4.69387 17.4756 4.70117C17.3724 4.73598 17.3169 4.84766 17.3517 4.95082C17.4091 5.12109 17.4561 5.29687 17.4909 5.47266C17.5098 5.56664 17.5916 5.63137 17.6838 5.63137L17.7222 5.6277C17.829 5.60633 17.898 5.50316 17.8772 5.39574L17.8724 5.37195V5.37133V5.37012L17.8711 5.36523V5.36461V5.3634V5.36277L17.8699 5.35789V5.35727L17.8693 5.35664L17.8687 5.35543V5.35422V5.35359L17.8681 5.35055L17.8674 5.34934V5.34871V5.3475V5.34629V5.34566L17.8668 5.34383L17.8662 5.34262V5.34199V5.34078V5.33957L17.865 5.33836V5.33715V5.33594V5.33473L17.8643 5.33352V5.33227L17.8637 5.33164V5.33043V5.3298L17.8631 5.32797V5.32734L17.8625 5.32551V5.32488V5.32367V5.32246L17.8613 5.32125V5.32062V5.31879V5.31816L17.8606 5.31633V5.3157L17.86 5.31387V5.31141L17.8588 5.30957V5.30895V5.30711L17.8576 5.30285V5.30223V5.30039L17.857 5.29977L17.8558 5.29367L17.8551 5.29305V5.29121L17.8539 5.28633V5.28449L17.8521 5.27777V5.27715L17.8502 5.26859C17.827 5.16727 17.8008 5.06719 17.7709 4.96953L17.7685 4.96039L17.7648 4.94758V4.94695L17.7617 4.93902L17.7599 4.9323V4.93168L17.7587 4.92984L17.7575 4.92312L17.755 4.91703V4.91641L17.7544 4.91457H17.7539L17.7527 4.91031V4.90969V4.90785L17.7521 4.90723L17.7509 4.90355L17.7502 4.90109L17.7496 4.89926L17.749 4.89863V4.8968L17.7478 4.89496V4.89434V4.8925L17.7472 4.89187L17.7465 4.89066V4.89004L17.7459 4.8882V4.88758L17.7453 4.88637V4.88516L17.7447 4.88395L17.744 4.88332V4.88148L17.7428 4.87965V4.87902V4.87719L17.7422 4.87656L17.7416 4.87535V4.87473L17.741 4.87289V4.87227L17.7403 4.87043V4.8698L17.7397 4.86859L17.7391 4.86797V4.86613L17.7385 4.86551L17.7378 4.8643V4.86352V4.8623L17.7372 4.86168L17.7366 4.86105V4.85922L17.736 4.85801L17.7353 4.85738V4.85617V4.85496L17.7347 4.85434L17.7344 4.85312V4.85191L17.7338 4.85008L17.7331 4.84945V4.84824V4.84762L17.7319 4.84641V4.84578V4.84398L17.7307 4.84277V4.84156V4.84094L17.7301 4.84031V4.8391L17.7283 4.83484V4.83422V4.83301H17.7276L17.727 4.8318V4.83059L17.7258 4.82812V4.8275V4.82629H17.7258Z" fill="#325D7B"/>
<path d="M13.252 10.9356C13.2727 10.9362 13.2929 10.9362 13.3136 10.9362H13.3142H13.3154H13.3161H13.3191H13.3203H13.3215H13.3227H13.324H13.3252H13.327H13.3276H13.3301H13.3325H13.3344H13.335H13.3362H13.3374H13.3386H13.3405H13.3411H13.3423H13.3435H13.3441H13.3448H13.346H13.3472H13.3484H13.349H13.3497H13.3509H13.3521H13.3533H13.3545H13.3557H13.3569H13.3606H13.3612H13.3631H13.3643H13.3655H13.3667H13.3673H13.3685H13.3691H13.3704H13.3716H13.3728H13.3734H13.374H13.3752H13.3765H13.3771H13.3783H13.3789H13.3801H13.3813H13.3825H13.3868H13.3874H13.3886H13.3899H13.3911H13.3923H13.3935H13.3947H13.3953H13.3965H13.3972H13.3984H13.3997H13.4009H13.4015L13.4021 10.9356H13.4033H13.4045H13.4052H13.407H13.4131H13.4149H13.4156H13.4168H13.418H13.4192H13.421H13.4216H13.4229L13.4253 10.935H13.4265H13.4277H13.429H13.4296H13.4308H13.4314H13.4326H13.4333H13.4412H13.443H13.4436H13.4449H13.4455H13.4473H13.4491H13.4498H13.451H13.4534H13.4547H13.4553H13.4571L13.473 10.9338H13.4754H13.4779C13.6 10.9301 13.722 10.9215 13.8429 10.9087C13.9503 10.8965 14.0284 10.7995 14.0168 10.6914C14.0059 10.5907 13.9204 10.5156 13.8209 10.5156L13.7995 10.5168C13.6457 10.5339 13.4889 10.5425 13.3326 10.5425C13.3082 10.5425 13.2838 10.5418 13.2594 10.5418H13.2557C13.1483 10.5418 13.0604 10.6279 13.0586 10.7347C13.0566 10.8441 13.1433 10.9332 13.252 10.9356Z" fill="#325D7B"/>
<path d="M17.7369 6.64453C17.6386 6.64453 17.5537 6.71777 17.5416 6.81789C17.5196 6.99613 17.4866 7.17496 17.4427 7.34891C17.4158 7.45449 17.4793 7.56133 17.5849 7.58816L17.6331 7.59426C17.721 7.59426 17.8016 7.53504 17.8242 7.44656C17.8346 7.40629 17.8437 7.3666 17.8528 7.32691V7.32629V7.32445L17.8541 7.31957L17.8547 7.31773L17.8553 7.31711V7.3159V7.31527L17.8559 7.31281L17.8566 7.31219V7.31098V7.30977V7.30914V7.30793L17.8572 7.30672L17.8578 7.30551V7.3043V7.30309V7.30246L17.8584 7.30125L17.8591 7.30004V7.29883L17.8597 7.29637V7.29574L17.8603 7.29391V7.29328V7.29207V7.29145L17.8615 7.28719V7.28473H17.8621L17.8628 7.28289L17.864 7.27801V7.27617V7.27555L17.8652 7.26945C17.8933 7.13641 17.9165 7.00152 17.9323 6.8648C17.9458 6.75676 17.8689 6.6591 17.7608 6.6457L17.7369 6.64453Z" fill="#325D7B"/>
<path d="M16.7529 3.17863V3.17801C16.7212 3.14383 16.6883 3.10902 16.6553 3.07484C16.6168 3.03516 16.5662 3.01562 16.5143 3.01562C16.4649 3.01562 16.4154 3.03395 16.377 3.07117C16.2988 3.14688 16.2976 3.27199 16.3733 3.34949C16.4984 3.47828 16.6168 3.61684 16.7249 3.76027C16.7633 3.81156 16.8225 3.83902 16.8823 3.83902C16.9238 3.83902 16.9653 3.82621 17.0007 3.79934C17.0874 3.73465 17.1051 3.61133 17.0398 3.52344C16.9738 3.43555 16.9043 3.35008 16.8322 3.26707L16.8292 3.2634H16.8286L16.8274 3.26219V3.26156L16.8249 3.25852L16.8243 3.25789L16.8231 3.25668H16.8224L16.8212 3.25484L16.82 3.25301V3.2525L16.8188 3.25129H16.8182L16.817 3.25008H16.8164L16.8152 3.24824V3.24762L16.814 3.24641V3.24578L16.8128 3.24457H16.8122L16.8109 3.24273H16.8103L16.8091 3.24152V3.2409L16.8079 3.23969V3.23906L16.8067 3.23785L16.8054 3.23723V3.2366L16.8042 3.23539L16.8036 3.23477L16.803 3.23414L16.8018 3.2323L16.8011 3.23168L16.8005 3.23047L16.7999 3.22984L16.7993 3.22922L16.7981 3.22859L16.7969 3.22746V3.22684L16.7957 3.22621V3.225L16.7945 3.22438L16.792 3.22133L16.7914 3.2207L16.7908 3.21949H16.7895L16.7871 3.21582V3.2152L16.7859 3.21457L16.7822 3.2109V3.21027L16.781 3.20906L16.7773 3.20539L16.7761 3.20418V3.20367L16.7724 3.20063V3.2L16.7718 3.19879H16.7712L16.7675 3.19391H16.7669L16.7626 3.18902V3.1884L16.7529 3.17863Z" fill="#325D7B"/>
<path d="M2.47559 4.82777C2.99195 4.06422 3.6377 3.39711 4.37746 2.85086L4.83645 3.82559L7.45547 1.08266L3.46312 0.90625L3.9502 1.94141C3.05297 2.57496 2.27539 3.36598 1.66016 4.2766C0.686055 5.71703 0.117188 7.45656 0.117188 9.32543H1.1023C1.1023 7.65734 1.60891 6.11254 2.47559 4.82777Z" fill="#325D7B"/>
<path d="M18.8977 11.1641C18.8977 12.7821 18.4216 14.2842 17.6013 15.5458C17.0715 16.36 16.3952 17.0704 15.614 17.6454L15.2459 16.8629L12.6269 19.6059L16.6198 19.7823L16.04 18.5493C16.983 17.8859 17.7966 17.0509 18.4265 16.0829C19.3469 14.6681 19.8828 12.9762 19.8828 11.1641H18.8977Z" fill="#325D7B"/>
<path d="M7.03123 6.4093C7.36631 6.41234 7.69529 6.43797 8.01877 6.48438C8.01631 6.42457 8.01389 6.36473 8.01389 6.30371C8.01389 3.37098 10.3997 0.985117 13.3325 0.985117C16.2652 0.985117 18.6511 3.37098 18.6511 6.30371C18.6511 9.03078 16.5881 11.283 13.9416 11.5863C14.0362 11.9 14.1113 12.2217 14.1631 12.5513C17.2521 12.1441 19.6362 9.50316 19.6362 6.30367C19.6362 2.82227 16.814 0 13.3325 0C9.85107 0 7.02881 2.82227 7.02881 6.30371C7.02881 6.3391 7.03123 6.37391 7.03123 6.4093Z" fill="#325D7B"/>
<path d="M13.6871 4.1875H12.417C12.2143 4.1875 12.0496 4.35168 12.0496 4.55434V8.29883C12.0496 8.50148 12.2144 8.66566 12.417 8.66566H12.6013C12.804 8.66566 12.9687 8.50148 12.9687 8.29883V7.24477H13.6871C14.6491 7.24477 15.4321 6.55871 15.4321 5.71582C15.4321 4.87355 14.6491 4.1875 13.6871 4.1875ZM13.6871 6.43969H12.9687V4.99191H13.6871C14.1431 4.99191 14.513 5.31664 14.513 5.71578C14.5129 6.11559 14.1431 6.43969 13.6871 6.43969Z" fill="#325D7B"/>
</svg>
