<svg width="17" height="5" viewBox="0 0 17 5" fill="none" xmlns="http://www.w3.org/2000/svg">
<path d="M3.91667 2.5013C3.91667 3.51385 3.09586 4.33464 2.08333 4.33464C1.07081 4.33464 0.25 3.51385 0.25 2.5013C0.25 1.48875 1.07081 0.667969 2.08333 0.667969C3.09586 0.667969 3.91667 1.48875 3.91667 2.5013Z" fill="white"/>
<path d="M16.7502 2.5013C16.7502 3.51385 15.9294 4.33464 14.9168 4.33464C13.9043 4.33464 13.0835 3.51385 13.0835 2.5013C13.0835 1.48875 13.9043 0.667969 14.9168 0.667969C15.9294 0.667969 16.7502 1.48875 16.7502 2.5013Z" fill="white"/>
<path opacity="0.5" d="M10.3332 2.5013C10.3332 3.51385 9.51239 4.33464 8.49984 4.33464C7.48729 4.33464 6.6665 3.51385 6.6665 2.5013C6.6665 1.48875 7.48729 0.667969 8.49984 0.667969C9.51239 0.667969 10.3332 1.48875 10.3332 2.5013Z" fill="white"/>
</svg>
