<svg width="16" height="16" viewBox="0 0 16 16" fill="none" xmlns="http://www.w3.org/2000/svg">
<path d="M5.80362 1.97037C6.52592 1.80093 7.263 1.71622 8 1.71622C8.33584 1.71622 8.60809 1.44396 8.60809 1.10811C8.60809 0.772258 8.33584 0.5 8 0.5C7.16975 0.5 6.3395 0.595433 5.52588 0.786292C3.17417 1.33792 1.33793 3.17416 0.786294 5.52587C0.404569 7.15317 0.404569 8.84683 0.786294 10.4742C1.33793 12.8258 3.17417 14.6621 5.52588 15.2137C7.15317 15.5954 8.84684 15.5954 10.4742 15.2137C12.8258 14.6621 14.6621 12.8258 15.2138 10.4742C15.4046 9.66042 15.5 8.83025 15.5 8C15.5 7.66417 15.2278 7.39183 14.8919 7.39183C14.5561 7.39183 14.2838 7.66417 14.2838 8C14.2838 8.737 14.1991 9.47408 14.0297 10.1964C13.5835 12.0984 12.0984 13.5835 10.1964 14.0297C8.75175 14.3685 7.24825 14.3685 5.80362 14.0297C3.90162 13.5835 2.41652 12.0984 1.97037 10.1964C1.6315 8.75175 1.6315 7.24825 1.97037 5.80362C2.41652 3.90162 3.90162 2.41652 5.80362 1.97037Z" fill="#325D7B"/>
<path d="M11.6487 0.5C11.3128 0.5 11.0405 0.772258 11.0405 1.10811C11.0405 1.44396 11.3128 1.71622 11.6487 1.71622H13.4238L9.59701 5.54297C9.35959 5.78046 9.35959 6.16549 9.59701 6.403C9.83451 6.64042 10.2196 6.64042 10.457 6.403L14.2838 2.57621V4.35135C14.2838 4.6872 14.5561 4.95946 14.8919 4.95946C15.2278 4.95946 15.5 4.6872 15.5 4.35135V1.10811C15.5 0.772258 15.2278 0.5 14.8919 0.5H11.6487Z" fill="#325D7B"/>
</svg>
