<svg width="12" height="12" viewBox="0 0 12 12" fill="none" xmlns="http://www.w3.org/2000/svg">
<path d="M11.0997 9.92636C11.2708 10.1115 11.3637 10.3557 11.3588 10.6077C11.3539 10.8598 11.2516 11.1002 11.0734 11.2785C10.8952 11.4568 10.6549 11.5593 10.4028 11.5643C10.1507 11.5694 9.9065 11.4767 9.72125 11.3057L5.99999 7.58446L2.27873 11.3057C2.18953 11.4022 2.08177 11.4797 1.96191 11.5335C1.84205 11.5873 1.71255 11.6164 1.58118 11.6189C1.44981 11.6215 1.31929 11.5975 1.19742 11.5484C1.07556 11.4992 0.964867 11.426 0.871991 11.3331C0.779115 11.2401 0.705965 11.1294 0.656929 11.0075C0.607892 10.8856 0.583979 10.755 0.586623 10.6237C0.589268 10.4923 0.618414 10.3628 0.672316 10.243C0.726218 10.1232 0.803765 10.0155 0.900305 9.92636L4.62157 6.20509L0.900305 2.48572C0.803765 2.3966 0.726218 2.28889 0.672316 2.16906C0.618414 2.04924 0.589268 1.91976 0.586623 1.7884C0.583979 1.65703 0.607892 1.52648 0.656929 1.40459C0.705965 1.28269 0.779115 1.17195 0.871991 1.07901C0.964867 0.986068 1.07556 0.912842 1.19742 0.863722C1.31929 0.814602 1.44981 0.790599 1.58118 0.793153C1.71255 0.795707 1.84205 0.824765 1.96191 0.878584C2.08177 0.932404 2.18953 1.00988 2.27873 1.10636L5.99999 4.82667L9.72125 1.10541C9.9065 0.934392 10.1507 0.841709 10.4028 0.846783C10.6549 0.851856 10.8952 0.954292 11.0734 1.13262C11.2516 1.31096 11.3539 1.55134 11.3588 1.80341C11.3637 2.05547 11.2708 2.29965 11.0997 2.48478L7.37841 6.20509L11.0997 9.92636Z" fill="#FF4659"/>
</svg>
