<svg width="20" height="20" viewBox="0 0 20 20" fill="none" xmlns="http://www.w3.org/2000/svg">
<path d="M7.62766 4.50829C8.68319 2.61474 9.21094 1.66797 10 1.66797C10.7891 1.66797 11.3169 2.61474 12.3724 4.50828L12.6454 4.99816C12.9454 5.53624 13.0954 5.80529 13.3293 5.98281C13.5631 6.16033 13.8543 6.22622 14.4368 6.35801L14.9671 6.47799C17.0168 6.94177 18.0417 7.17365 18.2855 7.95774C18.5294 8.7418 17.8307 9.55889 16.4333 11.1929L16.0718 11.6156C15.6747 12.08 15.4761 12.3121 15.3868 12.5994C15.2975 12.8866 15.3275 13.1964 15.3875 13.816L15.4422 14.38C15.6534 16.5601 15.7591 17.6502 15.1208 18.1348C14.4824 18.6194 13.5228 18.1776 11.6036 17.294L11.1071 17.0653C10.5618 16.8142 10.2891 16.6886 10 16.6886C9.71094 16.6886 9.43827 16.8142 8.89294 17.0653L8.39644 17.294C6.47725 18.1776 5.51767 18.6194 4.87931 18.1348C4.24096 17.6502 4.34659 16.5601 4.55786 14.38L4.61251 13.816C4.67255 13.1964 4.70256 12.8866 4.61324 12.5994C4.52392 12.3121 4.32538 12.08 3.92829 11.6156L3.56677 11.1929C2.1694 9.55889 1.47071 8.7418 1.71454 7.95774C1.95837 7.17365 2.98324 6.94177 5.03297 6.47799L5.56326 6.35801C6.14573 6.22622 6.43696 6.16033 6.67081 5.98281C6.90465 5.80529 7.05463 5.53625 7.35458 4.99816L7.62766 4.50829Z" stroke="#325D7B" stroke-width="1.5"/>
</svg>
