<svg width="16" height="16" viewBox="0 0 16 16" fill="none" xmlns="http://www.w3.org/2000/svg">
<path fill-rule="evenodd" clip-rule="evenodd" d="M8.14763 0.800781H8.14696C8.13371 0.800781 8.12124 0.800779 8.10938 0.800938C8.0148 0.80189 7.85932 0.803396 7.84535 0.803555C7.50437 0.803555 6.82213 0.851586 6.08929 1.17411C5.67029 1.35839 5.29341 1.60757 4.96915 1.91474C4.58255 2.28072 4.2676 2.73196 4.03322 3.25611C3.68998 4.02357 3.77146 5.31625 3.8369 6.35507L3.83714 6.3567C3.84415 6.46795 3.85151 6.58413 3.85824 6.69732C3.80788 6.72038 3.72624 6.74472 3.60591 6.74472C3.41229 6.74472 3.18205 6.683 2.92175 6.56139C2.84517 6.52582 2.75776 6.50784 2.66131 6.50784C2.50634 6.50784 2.34298 6.55332 2.20127 6.6364C2.02297 6.74078 1.90777 6.88832 1.87649 7.05189C1.85587 7.16008 1.85686 7.37393 2.0951 7.5908C2.22614 7.71019 2.41865 7.82029 2.66712 7.9182C2.73232 7.9438 2.8097 7.96825 2.89166 7.99417C3.17608 8.08431 3.60654 8.22049 3.7188 8.48392C3.77568 8.61748 3.7512 8.79322 3.64623 9.00564C3.64348 9.01144 3.64074 9.01711 3.63823 9.02307C3.612 9.08415 3.36727 9.63688 2.86527 10.2198C2.58002 10.5513 2.26583 10.8284 1.93194 11.0435C1.5244 11.3061 1.08343 11.4778 0.621398 11.5537C0.439961 11.5834 0.310388 11.7446 0.320499 11.9277C0.323604 11.9805 0.336025 12.0332 0.35756 12.0841L0.358078 12.085C0.43144 12.2561 0.601534 12.4014 0.878068 12.5296C1.21598 12.6861 1.72136 12.8178 2.38004 12.9208C2.41331 12.9839 2.44787 13.1425 2.47179 13.2511C2.49683 13.3665 2.52294 13.4852 2.56016 13.6113C2.60032 13.7478 2.70449 13.911 2.97211 13.911C3.07354 13.911 3.19017 13.8883 3.32523 13.8621C3.52303 13.8234 3.79351 13.7707 4.13111 13.7707C4.31828 13.7707 4.51225 13.7871 4.7075 13.8194C5.08387 13.8819 5.40833 14.1104 5.78374 14.3751C6.33323 14.7624 6.9552 15.2008 7.9055 15.2008C7.93141 15.2008 7.9574 15.2 7.98308 15.1982C8.01449 15.1996 8.05341 15.2008 8.09449 15.2008C9.04507 15.2008 9.66688 14.7622 10.2158 14.3753L10.2166 14.3745C10.5921 14.1101 10.9162 13.8819 11.2925 13.8194C11.4877 13.7871 11.6816 13.7707 11.8688 13.7707C12.1914 13.7707 12.4467 13.8117 12.6747 13.856C12.8235 13.8852 12.9391 13.8992 13.0279 13.8992L13.0366 13.8994H13.0456C13.2413 13.8994 13.3851 13.7923 13.44 13.6048C13.4765 13.4814 13.5025 13.3655 13.5282 13.2482C13.5505 13.1464 13.5863 12.9833 13.6196 12.9195C14.2787 12.8163 14.7838 12.6849 15.1218 12.5285C15.3977 12.4009 15.5676 12.2557 15.6414 12.0853C15.6635 12.0342 15.6765 11.9812 15.6794 11.9273C15.6898 11.7445 15.56 11.583 15.3784 11.5533C13.325 11.2159 12.4 9.1121 12.3617 9.02272C12.3592 9.01684 12.3565 9.01101 12.3536 9.00533C12.2486 8.79283 12.2243 8.61727 12.2813 8.48348C12.3933 8.22029 12.8235 8.08411 13.1081 7.99401C13.1905 7.96814 13.2681 7.94353 13.3328 7.91805C13.613 7.80771 13.8133 7.688 13.9454 7.55206C14.1032 7.39 14.1339 7.23473 14.132 7.13313C14.1272 6.88728 13.9387 6.66883 13.6389 6.56187C13.5376 6.52011 13.4222 6.49808 13.3046 6.49808C13.2245 6.49808 13.106 6.50904 12.9938 6.56127C12.7535 6.67336 12.5383 6.73464 12.3536 6.74337C12.2554 6.73841 12.1865 6.71717 12.1418 6.69689C12.1474 6.60099 12.1537 6.50249 12.1601 6.39977L12.1627 6.35579C12.2285 5.3163 12.3103 4.02262 11.9669 3.25461C11.7315 2.72859 11.4154 2.27619 11.0273 1.90941C10.7018 1.60205 10.3236 1.35291 9.90309 1.16875C9.17129 0.848606 8.48909 0.800781 8.14763 0.800781Z" fill="white"/>
</svg>
