<svg width="18" height="14" viewBox="0 0 18 14" fill="none" xmlns="http://www.w3.org/2000/svg">
<path fill-rule="evenodd" clip-rule="evenodd" d="M5.25 0.0625C4.03877 0.0625 2.94349 0.365222 2.14849 1.10342C1.34597 1.84864 0.9375 2.95529 0.9375 4.375V9.625C0.9375 11.0448 1.34597 12.1514 2.14849 12.8966C2.94349 13.6348 4.03877 13.9375 5.25 13.9375H12.75C13.9613 13.9375 15.0566 13.6348 15.8515 12.8966C16.654 12.1514 17.0625 11.0448 17.0625 9.625V4.375C17.0625 2.95529 16.654 1.84864 15.8515 1.10342C15.0566 0.365222 13.9613 0.0625 12.75 0.0625H5.25ZM14.4214 4.27172C14.6672 4.08178 14.7125 3.72851 14.5225 3.48269C14.3326 3.23687 13.9793 3.19158 13.7335 3.38153L9.57315 6.5962C9.23557 6.85713 8.76435 6.85713 8.4267 6.5962L4.26645 3.38153C4.02062 3.19158 3.66737 3.23687 3.47741 3.48269C3.28746 3.72851 3.33275 4.08178 3.57858 4.27172L7.73887 7.48645C8.48167 8.06035 9.51825 8.06035 10.2611 7.48645L14.4214 4.27172Z" fill="#325D7B"/>
</svg>
