<svg width="20" height="20" viewBox="0 0 20 20" fill="none" xmlns="http://www.w3.org/2000/svg">
<path d="M12.1964 3.97037C11.4741 3.80093 10.737 3.71622 10 3.71622C9.66416 3.71622 9.39191 3.44396 9.39191 3.10811C9.39191 2.77226 9.66416 2.5 10 2.5C10.8302 2.5 11.6605 2.59543 12.4741 2.78629C14.8258 3.33792 16.6621 5.17416 17.2137 7.52587C17.5954 9.15317 17.5954 10.8468 17.2137 12.4742C16.6621 14.8258 14.8258 16.6621 12.4741 17.2137C10.8468 17.5954 9.15316 17.5954 7.52583 17.2137C5.17416 16.6621 3.33791 14.8258 2.78625 12.4742C2.59541 11.6604 2.5 10.8302 2.5 10C2.5 9.66417 2.77225 9.39183 3.10808 9.39183C3.44391 9.39183 3.71625 9.66417 3.71625 10C3.71625 10.737 3.80091 11.4741 3.97033 12.1964C4.4165 14.0984 5.90158 15.5835 7.80358 16.0297C9.24825 16.3685 10.7517 16.3685 12.1964 16.0297C14.0984 15.5835 15.5835 14.0984 16.0296 12.1964C16.3685 10.7517 16.3685 9.24825 16.0296 7.80362C15.5835 5.90162 14.0984 4.41652 12.1964 3.97037Z" fill="#325D7B"/>
<path d="M6.35132 2.5C6.68716 2.5 6.95949 2.77226 6.95949 3.10811C6.95949 3.44396 6.68716 3.71622 6.35132 3.71622H4.57624L8.40299 7.54297C8.64041 7.78046 8.64041 8.16549 8.40299 8.403C8.16549 8.64042 7.78041 8.64042 7.54299 8.403L3.71624 4.57621V6.35135C3.71624 6.6872 3.44391 6.95946 3.10808 6.95946C2.77224 6.95946 2.49999 6.6872 2.49999 6.35135V3.10811C2.49999 2.77226 2.77224 2.5 3.10808 2.5H6.35132Z" fill="#325D7B"/>
</svg>
