<svg width="34" height="26" viewBox="0 0 34 26" fill="none" xmlns="http://www.w3.org/2000/svg">
<rect width="34" height="26" rx="13" fill="#325D7B"/>
<path d="M17.0001 9.7912C17.0001 9.65165 17.0001 9.58187 17.0471 9.53854C17.0943 9.49521 17.16 9.5007 17.2914 9.51168C17.8041 9.5545 18.3024 9.70999 18.7501 9.96844C19.2821 10.2756 19.7239 10.7175 20.0312 11.2495C20.3384 11.7816 20.5001 12.3852 20.5001 12.9995C20.5001 13.6139 20.3384 14.2175 20.0312 14.7495C19.7239 15.2816 19.2821 15.7234 18.7501 16.0306C18.218 16.3378 17.6144 16.4995 17.0001 16.4995C16.3857 16.4995 15.7821 16.3378 15.2501 16.0306C14.8024 15.7722 14.4186 15.4184 14.1252 14.9958C14.0499 14.8874 14.0123 14.8332 14.0263 14.7708C14.0403 14.7083 14.1007 14.6735 14.2216 14.6037L16.8542 13.0837C16.9254 13.0426 16.961 13.0221 16.9805 12.9883C17.0001 12.9544 17.0001 12.9133 17.0001 12.8311V9.7912Z" fill="#9CD8D3"/>
<path d="M17 18.25C19.8995 18.25 22.25 15.8995 22.25 13C22.25 10.1005 19.8995 7.75 17 7.75C14.1005 7.75 11.75 10.1005 11.75 13C11.75 15.8995 14.1005 18.25 17 18.25Z" stroke="#9CD8D3" stroke-width="1.5"/>
</svg>
