<svg width="40" height="41" viewBox="0 0 40 41" fill="none" xmlns="http://www.w3.org/2000/svg">
<circle cx="20" cy="20.5" r="20" fill="#FD6721"/>
<path fill-rule="evenodd" clip-rule="evenodd" d="M26.6666 20.4987C26.6666 17.356 26.6666 15.7847 25.6903 14.8083C24.714 13.832 23.1427 13.832 20 13.832C16.8573 13.832 15.2859 13.832 14.3096 14.8083C13.3333 15.7847 13.3333 17.356 13.3333 20.4987C13.3333 23.6414 13.3333 25.2128 14.3096 26.189C15.2859 27.1654 16.8573 27.1654 20 27.1654C23.1427 27.1654 24.714 27.1654 25.6903 26.189C26.6666 25.2128 26.6666 23.6414 26.6666 20.4987ZM20 24.332C19.7238 24.332 19.5 24.1082 19.5 23.832V20.3725L18.3535 21.5189C18.1582 21.7142 17.8417 21.7142 17.6464 21.5189C17.4512 21.3236 17.4512 21.0071 17.6464 20.8118L19.6464 18.8118C19.7402 18.718 19.8674 18.6654 20 18.6654C20.1326 18.6654 20.2598 18.718 20.3535 18.8118L22.3535 20.8118C22.5488 21.0071 22.5488 21.3236 22.3535 21.5189C22.1583 21.7142 21.8417 21.7142 21.6464 21.5189L20.5 20.3725V23.832C20.5 24.1082 20.2761 24.332 20 24.332ZM22.6666 17.6654C22.9428 17.6654 23.1666 17.4415 23.1666 17.1654C23.1666 16.8892 22.9428 16.6654 22.6666 16.6654H17.3333C17.0572 16.6654 16.8333 16.8892 16.8333 17.1654C16.8333 17.4415 17.0572 17.6654 17.3333 17.6654H22.6666Z" fill="white"/>
</svg>
