<svg width="18" height="18" viewBox="0 0 18 18" fill="none" xmlns="http://www.w3.org/2000/svg">
<path fill-rule="evenodd" clip-rule="evenodd" d="M17.333 9.0013C17.333 5.07293 17.333 3.10874 16.1126 1.88836C14.8922 0.667969 12.928 0.667969 8.99967 0.667969C5.07134 0.667969 3.10709 0.667969 1.88676 1.88836C0.666342 3.10874 0.666342 5.07293 0.666342 9.0013C0.666342 12.9296 0.666342 14.8939 1.88676 16.1142C3.10709 17.3346 5.07134 17.3346 8.99967 17.3346C12.928 17.3346 14.8922 17.3346 16.1126 16.1142C17.333 14.8939 17.333 12.9296 17.333 9.0013ZM8.99967 13.793C8.65451 13.793 8.37467 13.5131 8.37467 13.168V8.84355L6.94159 10.2766C6.69751 10.5206 6.30184 10.5206 6.05776 10.2766C5.81367 10.0325 5.81367 9.6368 6.05776 9.39272L8.55776 6.89269C8.67492 6.77549 8.83392 6.70964 8.99967 6.70964C9.16542 6.70964 9.32442 6.77549 9.44159 6.89269L11.9416 9.39272C12.1857 9.6368 12.1857 10.0325 11.9416 10.2766C11.6975 10.5206 11.3018 10.5206 11.0577 10.2766L9.62467 8.84355V13.168C9.62467 13.5131 9.34484 13.793 8.99967 13.793ZM12.333 5.45964C12.6782 5.45964 12.958 5.17981 12.958 4.83464C12.958 4.48946 12.6782 4.20964 12.333 4.20964H5.66634C5.32117 4.20964 5.04134 4.48946 5.04134 4.83464C5.04134 5.17981 5.32117 5.45964 5.66634 5.45964H12.333Z" fill="#325D7B"/>
</svg>
