<svg width="80" height="80" viewBox="0 0 80 80" fill="none" xmlns="http://www.w3.org/2000/svg">
<path d="M0.5 40C0.5 18.1848 18.1848 0.5 40 0.5C61.8152 0.5 79.5 18.1848 79.5 40C79.5 61.8152 61.8152 79.5 40 79.5C18.1848 79.5 0.5 61.8152 0.5 40Z" fill="white"/>
<path fill-rule="evenodd" clip-rule="evenodd" d="M40.6488 35.1338C40.6488 32.8046 42.5371 30.9164 44.8663 30.9164C47.1954 30.9164 49.0836 32.8046 49.0836 35.1338C49.0836 37.4629 47.1954 39.3512 44.8663 39.3512C42.5371 39.3512 40.6488 37.4629 40.6488 35.1338ZM44.8663 32.8629C43.612 32.8629 42.5954 33.8796 42.5954 35.1338C42.5954 36.3879 43.612 37.4046 44.8663 37.4046C46.1203 37.4046 47.1372 36.3879 47.1372 35.1338C47.1372 33.8796 46.1203 32.8629 44.8663 32.8629ZM53.9952 47.1004C54.2741 46.438 54.5 45.7472 54.6676 45.033C55.4442 41.7226 55.4442 38.2774 54.6676 34.9671C53.5462 30.1865 49.8135 26.4537 45.033 25.3324C41.7226 24.5559 38.2774 24.5559 34.9671 25.3324C30.1865 26.4537 26.4538 30.1865 25.3324 34.9671C24.5559 38.2774 24.5559 41.7226 25.3324 45.033C25.4147 45.3839 25.5111 45.7292 25.621 46.0683L26.6441 45.0455C30.3443 41.3459 36.3435 41.3459 40.0437 45.0455L42.9085 47.9097L43.6595 47.1588C46.537 44.282 51.1557 44.3157 53.9952 47.1004ZM53.0489 48.9468L53.0074 48.8968C50.9734 46.4565 47.2824 46.2891 45.0357 48.5354L44.2851 49.2859L48.3743 53.3744C50.2651 52.3205 51.8599 50.8082 53.0123 48.9839C53.0248 48.9717 53.037 48.9594 53.0489 48.9468ZM46.4836 54.2365L38.6675 46.4219C35.7274 43.4824 30.9604 43.4824 28.0203 46.4219L26.4308 48.0111C28.1418 51.3255 31.2352 53.7922 34.9671 54.6676C38.2774 55.4442 41.7226 55.4442 45.033 54.6676C45.5283 54.5514 46.0126 54.4072 46.4836 54.2365Z" fill="#325D7B"/>
</svg>
