<svg width="16" height="16" viewBox="0 0 16 16" fill="none" xmlns="http://www.w3.org/2000/svg">
<path d="M9.62044 9.82422L6.28707 6.49089M9.62044 9.82422L5.45502 13.9896C4.90615 14.5385 4.23989 14.9718 3.47496 15.1037C2.70261 15.237 1.74414 15.2813 1.28705 14.8242C0.829979 14.3671 0.874312 13.4086 1.00752 12.6363C1.13945 11.8714 1.57281 11.2051 2.12169 10.6562L6.28707 6.49089M9.62044 9.82422C9.62044 9.82422 12.1204 7.32422 10.4537 5.65755C8.78702 3.99089 6.28707 6.49089 6.28707 6.49089M0.916687 8.0013C0.916687 2.58464 2.58335 0.917969 8.00002 0.917969C13.4167 0.917969 15.0834 2.58464 15.0834 8.0013C15.0834 13.418 13.4167 15.0846 8.00002 15.0846" stroke="#325D7B" stroke-width="1.5" stroke-linecap="round" stroke-linejoin="round"/>
</svg>
