<svg width="22" height="18" viewBox="0 0 22 18" fill="none" xmlns="http://www.w3.org/2000/svg">
<path fill-rule="evenodd" clip-rule="evenodd" d="M11 5.25C8.92893 5.25 7.25 6.92893 7.25 9C7.25 11.0711 8.92893 12.75 11 12.75C13.0711 12.75 14.75 11.0711 14.75 9C14.75 6.92893 13.0711 5.25 11 5.25ZM8.75 9C8.75 7.7574 9.7574 6.75 11 6.75C12.2426 6.75 13.25 7.7574 13.25 9C13.25 10.2426 12.2426 11.25 11 11.25C9.7574 11.25 8.75 10.2426 8.75 9Z" fill="#325D7B"/>
<path fill-rule="evenodd" clip-rule="evenodd" d="M11 0.25C6.48587 0.25 3.44529 2.9542 1.68057 5.24686L1.64874 5.2882C1.24964 5.80653 0.88206 6.28392 0.63269 6.8484C0.36564 7.4529 0.25 8.1117 0.25 9C0.25 9.8883 0.36564 10.5471 0.63269 11.1516C0.88206 11.7161 1.24964 12.1935 1.64875 12.7118L1.68057 12.7531C3.44529 15.0458 6.48587 17.75 11 17.75C15.5141 17.75 18.5547 15.0458 20.3194 12.7531L20.3512 12.7118C20.7504 12.1935 21.1179 11.7161 21.3673 11.1516C21.6344 10.5471 21.75 9.8883 21.75 9C21.75 8.1117 21.6344 7.4529 21.3673 6.8484C21.1179 6.28391 20.7504 5.80652 20.3512 5.28818L20.3194 5.24686C18.5547 2.9542 15.5141 0.25 11 0.25ZM2.86922 6.1618C4.49864 4.04492 7.15036 1.75 11 1.75C14.8496 1.75 17.5014 4.04492 19.1308 6.1618C19.5694 6.73159 19.8263 7.0721 19.9952 7.4545C20.1532 7.812 20.25 8.2489 20.25 9C20.25 9.7511 20.1532 10.188 19.9952 10.5455C19.8263 10.9279 19.5694 11.2684 19.1308 11.8382C17.5014 13.9551 14.8496 16.25 11 16.25C7.15036 16.25 4.49864 13.9551 2.86922 11.8382C2.43064 11.2684 2.17374 10.9279 2.00476 10.5455C1.84684 10.188 1.75 9.7511 1.75 9C1.75 8.2489 1.84684 7.812 2.00476 7.4545C2.17374 7.0721 2.43063 6.73159 2.86922 6.1618Z" fill="#325D7B"/>
</svg>
