<svg width="223" height="55" viewBox="0 0 223 55" fill="none" xmlns="http://www.w3.org/2000/svg">
<path opacity="0.1" d="M140.701 55C138.954 55 134.734 54.3979 132.26 48.5775L123.965 29.3097C122.8 26.5667 118.653 24.0244 115.524 24.0244L71.8636 24.1583C68.8802 24.1583 -116 21.9506 -116 19.1407C-116 16.3977 68.8074 14.1231 71.8636 14.1231L115.524 13.9893H115.596C123.237 13.9893 131.387 19.0737 134.225 25.6301L140.846 41.0175L155.836 6.09485C158.092 0.876511 162.094 0.140615 163.768 0.006812C165.442 -0.0600897 169.517 0.274341 172.354 5.22507L179.922 18.4048C181.232 20.6795 185.161 22.8872 187.999 22.8872H217.542C220.526 22.8872 223 25.1618 223 27.9048C223 30.6478 220.526 32.9224 217.542 32.9224H187.999C181.086 32.9224 173.519 28.7077 170.317 23.0879L164.641 13.1864L149.36 48.5775C146.668 54.331 142.375 55 140.701 55Z" fill="url(#paint0_linear_268_4218)"/>
<defs>
<linearGradient id="paint0_linear_268_4218" x1="66.406" y1="19.6814" x2="224.4" y2="26.7485" gradientUnits="userSpaceOnUse">
<stop stop-color="#FD6721"/>
<stop offset="1" stop-color="#FD6721" stop-opacity="0.14"/>
</linearGradient>
</defs>
</svg>
