<svg width="16" height="16" viewBox="0 0 16 16" fill="none" xmlns="http://www.w3.org/2000/svg">
<path fill-rule="evenodd" clip-rule="evenodd" d="M8 0.5C3.85786 0.5 0.5 3.85786 0.5 8C0.5 9.4172 0.893788 10.7446 1.57817 11.8762L0.909358 14.1502C0.740173 14.7254 1.27463 15.2599 1.84981 15.0907L4.12378 14.4218C5.25544 15.1063 6.5828 15.5 8 15.5C12.1421 15.5 15.5 12.1421 15.5 8C15.5 3.85786 12.1421 0.5 8 0.5ZM6.30366 9.69703C7.82053 11.2139 9.269 11.4139 9.78043 11.4327C10.5583 11.4613 11.3158 10.8673 11.611 10.1782C11.6834 10.0094 11.6653 9.80638 11.5441 9.65105C11.1337 9.12538 10.578 8.74873 10.0351 8.3738C9.80045 8.2115 9.47788 8.26175 9.30508 8.49163L8.85455 9.17795C8.80453 9.25408 8.70515 9.28025 8.6261 9.23503C8.32123 9.06073 7.8767 8.7635 7.5569 8.4437C7.23748 8.12428 6.95833 7.69985 6.80165 7.41463C6.76048 7.33963 6.78328 7.247 6.8519 7.196L7.54453 6.68165C7.75108 6.50285 7.78738 6.19915 7.63535 5.97671C7.29875 5.48427 6.90665 4.8584 6.33913 4.44445C6.18412 4.33138 5.98805 4.31869 5.82616 4.38806C5.13628 4.68373 4.53931 5.44092 4.56799 6.22021C4.58681 6.73168 4.78679 8.18015 6.30366 9.69703Z" fill="#325D7B"/>
</svg>
